<?xml version="1.0" standalone="no"?>
<!DOCTYPE svg PUBLIC "-//W3C//DTD SVG 1.1//EN" "http://www.w3.org/Graphics/SVG/1.1/DTD/svg11.dtd" >
<svg xmlns="http://www.w3.org/2000/svg">
<metadata>
This is a custom SVG webfont generated by Font Squirrel.
Copyright   :  1990 1992 Adobe Systems Incorporated All rights reserved
Designer    : Linotype Staff
Foundry URL : httpwwwadobecomtype
</metadata>
<defs>
<font id="DIN30640StdNeuzeitGroteskLt" horiz-adv-x="1064" >
<font-face units-per-em="2048" ascent="1556" descent="-492" />
<missing-glyph horiz-adv-x="532" />
<glyph unicode=" "  horiz-adv-x="532" />
<glyph unicode="&#x09;" horiz-adv-x="532" />
<glyph unicode="&#xa0;" horiz-adv-x="532" />
<glyph unicode="!" horiz-adv-x="720" d="M225 118.5q0 55.5 40 95.5t95.5 40t95.5 -40t40 -95.5t-40 -95t-95.5 -39.5t-95.5 39.5t-40 95zM262 375v1181h197v-1181h-197z" />
<glyph unicode="&#x22;" d="M301 979v577h152v-577h-152zM612 979v577h152v-577h-152z" />
<glyph unicode="#" d="M4 461v127h229l46 327h-209v127h227l63 461h140l-64 -461h275l63 461h139l-63 -461h211v-127h-230l-45 -327h209v-127h-227l-63 -461h-140l64 461h-275l-63 -461h-139l63 461h-211zM373 588h274l45 327h-274z" />
<glyph unicode="$" d="M29 422h196q25 -238 244 -277v529l-70 26q-346 129 -346 410q0 170 119 280.5t297 129.5v153h115v-153q182 -12 298.5 -128t131.5 -325h-185q-18 123 -81.5 199.5t-163.5 91.5v-518l90 -33q362 -129 362 -410q0 -174 -125 -288.5t-327 -124.5v-154h-115v154 q-190 16 -307 126.5t-133 311.5zM250 1116q0 -156 219 -235v477q-117 -16 -168 -87t-51 -155zM584 145q113 8 184.5 76t71.5 160q0 156 -242 246l-14 6v-488z" />
<glyph unicode="%" horiz-adv-x="1857" d="M174 1059v168q0 133 83 213t216 80t216 -80t83 -213v-168q0 -133 -83 -212t-216 -79t-216 79t-83 212zM336 1085q0 -178 137 -178t137 178v115q0 180 -137 180t-137 -180v-115zM420 -16l856 1536h162l-856 -1536h-162zM1085 274v168q0 133 83 213t216.5 80t216 -80 t82.5 -213v-168q0 -133 -82.5 -211.5t-216 -78.5t-216.5 78.5t-83 211.5zM1247 301q0 -178 137.5 -178t137.5 178v115q0 180 -137.5 180t-137.5 -180v-115z" />
<glyph unicode="&#x26;" horiz-adv-x="1517" d="M145 399q0 170 104.5 289t321.5 234q-72 98 -97 156.5t-25 127.5q0 133 86 215t219 82q137 0 216 -87t79 -183q0 -213 -232 -356l254 -363l225 205l125 -129l-245 -221l264 -369h-240l-166 240q-137 -137 -239.5 -196.5t-231.5 -59.5q-180 0 -299 121.5t-119 293.5z M330 412q0 -98 70.5 -171t170.5 -73q139 0 363 219l-270 395q-190 -117 -262 -199.5t-72 -170.5zM633 1212q0 -74 90 -200q141 94 141 207q0 51 -29.5 86.5t-80.5 35.5q-47 0 -84 -34t-37 -95z" />
<glyph unicode="'" horiz-adv-x="606" d="M227 979v577h152v-577h-152z" />
<glyph unicode="(" horiz-adv-x="720" d="M141 590q0 555 389 1040l138 -110q-330 -416 -330 -930t330 -930l-138 -111q-389 486 -389 1041z" />
<glyph unicode=")" horiz-adv-x="720" d="M53 -340q330 416 330 930t-330 930l137 110q389 -485 389.5 -1040t-389.5 -1041z" />
<glyph unicode="*" horiz-adv-x="835" d="M76 1249l37 127l245 -92l-8 272h135l-8 -272l246 92l37 -127l-250 -75l170 -213l-113 -70l-149 217l-150 -217l-112 70l170 213z" />
<glyph unicode="+" horiz-adv-x="1228" d="M96 442v152h443v442h151v-442h443v-152h-443v-442h-151v442h-443z" />
<glyph unicode="," horiz-adv-x="532" d="M8 -283l205 537l186 -90l-258 -506z" />
<glyph unicode="-" horiz-adv-x="606" d="M61 473v184h484v-184h-484z" />
<glyph unicode="." horiz-adv-x="532" d="M131 118.5q0 55.5 40 95.5t95.5 40t95 -40t39.5 -95.5t-39.5 -95t-95 -39.5t-95.5 39.5t-40 95z" />
<glyph unicode="/" horiz-adv-x="948" d="M41 -25l704 1606h162l-704 -1606h-162z" />
<glyph unicode="0" d="M88 485v576q0 193 121 326t323.5 133t323.5 -133.5t121 -325.5v-576q0 -248 -120 -374.5t-324.5 -126.5t-324.5 126.5t-120 374.5zM272 426q0 -119 65.5 -200t195 -81t195 81t65.5 200v641q0 119 -65.5 200t-195 81t-195 -81t-65.5 -200v-641z" />
<glyph unicode="1" horiz-adv-x="831" d="M92 1081v197l477 268v-1546h-184v1255z" />
<glyph unicode="2" d="M51 0l576 858q39 57 58.5 91t39.5 89.5t20 104.5q0 84 -63.5 144.5t-151.5 60.5q-111 0 -181 -61.5t-79 -192.5h-184q4 190 123 308t307 118q172 0 293 -100.5t121 -274.5q0 -141 -78 -258l-473 -715h539v-172h-867z" />
<glyph unicode="3" d="M20 246l158 88q96 -188 291 -189q121 0 217 86t96 228q0 145 -93 236t-240 91q-156 0 -261 -100l-26 25l436 620h-506v172h834l-398 -577q190 0 314.5 -123t124.5 -330q0 -211 -142.5 -350t-341.5 -139q-164 0 -266.5 53t-196.5 209z" />
<glyph unicode="4" d="M25 373v82l759 1083h37v-1003h170v-162h-170v-373h-184v373h-612zM260 535h377v536h-4z" />
<glyph unicode="5" d="M31 248l153 100q100 -203 303 -203q115 0 208 84t93 242q0 137 -90 227t-221 90q-172 0 -315 -131l-21 15v831h727v-172h-555v-422q98 41 197 41q172 0 317.5 -127t145.5 -348q0 -205 -136.5 -348t-334.5 -143q-168 0 -278.5 65.5t-192.5 198.5z" />
<glyph unicode="6" d="M68 444q0 102 38.5 198.5t145.5 262.5l395 615h221l-424 -627l5 -4q43 18 126 18q186 0 304 -136t118 -312q0 -207 -132 -341t-322 -134q-205 0 -340 125.5t-135 334.5zM252 444.5q0 -139.5 81 -219.5t199 -80q123 0 202 82t79 217.5t-79 218t-202 82.5 q-119 0 -199.5 -80.5t-80.5 -220z" />
<glyph unicode="7" d="M96 1331v172h873l-625 -1503h-197l558 1331h-609z" />
<glyph unicode="8" d="M68 426q0 135 69.5 239.5t186.5 153.5q-92 45 -143.5 126t-51.5 181q0 156 104.5 275t299 119t299 -119t104.5 -275q0 -100 -51 -181t-144 -126q117 -49 186.5 -153.5t69.5 -239.5q0 -182 -127 -312t-337.5 -130t-337.5 130t-127 312zM252 436q0 -131 81 -211t199.5 -80 t199.5 80t81 211q0 127 -81 207t-199.5 80t-199.5 -80t-81 -207zM313 1130q0 -96 63.5 -159.5t156 -63.5t156 63.5t63.5 159.5q0 98 -63.5 163t-156 65t-156 -65t-63.5 -163z" />
<glyph unicode="9" d="M68 1044q0 207 132 341.5t322 134.5q205 0 340 -126t135 -335q0 -102 -38.5 -198.5t-145.5 -262.5l-395 -614h-221l424 626l-5 4q-43 -18 -127 -18q-186 0 -303.5 136t-117.5 312zM252 1059q0 -135 79 -218t201 -83q119 0 200 81t81 220t-81 219t-200 80 q-123 0 -201.5 -82t-78.5 -217z" />
<glyph unicode=":" horiz-adv-x="532" d="M131 118.5q0 55.5 40 95.5t95.5 40t95 -40t39.5 -95.5t-39.5 -95t-95 -39.5t-95.5 39.5t-40 95zM131 956.5q0 55.5 40 95.5t95.5 40t95 -40t39.5 -95.5t-39.5 -95.5t-95 -40t-95.5 40t-40 95.5z" />
<glyph unicode=";" horiz-adv-x="532" d="M8 -283l205 537l186 -90l-258 -506zM131 956.5q0 55.5 40 95.5t95.5 40t95 -40t39.5 -95.5t-39.5 -95.5t-95 -40t-95.5 40t-40 95.5z" />
<glyph unicode="&#x3c;" horiz-adv-x="1228" d="M96 449v139l1037 465v-152l-852 -383l852 -383v-151z" />
<glyph unicode="=" horiz-adv-x="1228" d="M96 233v152h1037v-152h-1037zM96 651v152h1037v-152h-1037z" />
<glyph unicode="&#x3e;" horiz-adv-x="1228" d="M96 -16v151l852 383l-852 383v152l1037 -465v-139z" />
<glyph unicode="?" d="M111 1128q12 195 125.5 311.5t306.5 116.5q184 0 297.5 -119.5t113.5 -289.5q0 -92 -32.5 -162t-124.5 -141l-121 -94q-86 -68 -111.5 -131.5t-25.5 -243.5h-185q0 207 40 311.5t155 194.5l110 86q53 43 76 84t23 104q0 96 -62.5 162.5t-156.5 66.5q-115 0 -173.5 -72.5 t-58.5 -183.5h-196zM311 118.5q0 55.5 40 95.5t95.5 40t95.5 -40t40 -95.5t-40 -95t-95.5 -39.5t-95.5 39.5t-40 95z" />
<glyph unicode="@" horiz-adv-x="1638" d="M16 782q0 334 247 566.5t593 232.5q315 0 540.5 -187.5t225.5 -473.5q0 -137 -55.5 -258t-137 -197t-172 -119t-167.5 -43q-59 0 -98.5 33t-45.5 98h-6q-119 -131 -264 -131q-141 0 -233.5 99.5t-92.5 240.5q0 145 62.5 279.5t182.5 222.5t269 88q178 0 252 -166l39 131 h162l-170 -563q-31 -111 -31 -141q0 -51 43 -52q121 0 222.5 143.5t101.5 315.5q0 252 -179.5 402.5t-447.5 150.5q-299 0 -493.5 -197.5t-194.5 -484.5q0 -285 202.5 -477.5t501.5 -192.5q156 0 300.5 67t238.5 179h152q-109 -174 -295.5 -273.5t-399.5 -99.5 q-358 0 -605 233.5t-247 573.5zM522 662q0 -92 53.5 -149.5t141.5 -57.5q133 0 232.5 143t99.5 285q0 78 -54.5 138t-126.5 60q-145 0 -245.5 -136t-100.5 -283z" />
<glyph unicode="A" horiz-adv-x="1515" d="M39 0l633 1556h172l633 -1556h-215l-142 362h-725l-141 -362h-215zM463 535h590l-295 763z" />
<glyph unicode="B" horiz-adv-x="1290" d="M156 0v1556h405q223 0 350 -90q168 -121 168 -340q0 -211 -194 -307v-4q141 -20 222 -124.5t81 -250.5q0 -188 -135 -314t-334 -126h-563zM352 172h299q340 0 340 266q0 111 -80 190t-260 79h-299v-535zM352 879h246q123 0 204 66.5t81 176.5q0 119 -78 190.5t-246 71.5 h-207v-505z" />
<glyph unicode="C" horiz-adv-x="1517" d="M102 778.5q0 147.5 56.5 288.5t158 257t261 186.5t350.5 70.5q152 0 295 -55.5t239 -143.5l-133 -145q-176 160 -401 160q-250 0 -433.5 -177.5t-183.5 -441.5t185.5 -441t431.5 -177q240 0 415 166l125 -142q-104 -96 -249.5 -152.5t-290.5 -56.5q-190 0 -350 71 t-261.5 186.5t-158 257t-56.5 289z" />
<glyph unicode="D" horiz-adv-x="1517" d="M156 0v1556h512q295 0 521 -223t226 -549q0 -332 -231.5 -558t-565.5 -226h-462zM352 184h264q258 0 424 175.5t166 435.5q0 248 -175 412.5t-431 164.5h-248v-1188z" />
<glyph unicode="E" horiz-adv-x="1062" d="M156 0v1556h805v-184h-609v-493h609v-185h-609v-510h609v-184h-805z" />
<glyph unicode="F" horiz-adv-x="1062" d="M156 0v1556h805v-184h-609v-493h609v-185h-609v-694h-196z" />
<glyph unicode="G" horiz-adv-x="1855" d="M115 778.5q0 147.5 56 288.5t157.5 257t261.5 186.5t350 70.5q303 0 549 -211l-125 -147q-186 174 -424 174q-250 0 -433 -177.5t-183 -441.5t185 -441t431 -177q217 0 388 138t218 376h-569v184h784q0 -403 -239.5 -643t-581.5 -240q-190 0 -350 71t-261.5 186.5 t-157.5 257t-56 289z" />
<glyph unicode="H" horiz-adv-x="1517" d="M156 0v1556h196v-667h813v667h197v-1556h-197v705h-813v-705h-196z" />
<glyph unicode="I" horiz-adv-x="491" d="M147 0v1556h197v-1556h-197z" />
<glyph unicode="J" horiz-adv-x="948" d="M84 -20v180h68q236 0 340 86t104 303v823h-490v184h687v-1050q0 -256 -160 -393.5t-434 -137.5q-62 1 -115 5z" />
<glyph unicode="K" horiz-adv-x="1290" d="M156 0v1556h196v-712l635 712h252l-698 -759l714 -797h-282l-621 711v-711h-196z" />
<glyph unicode="L" horiz-adv-x="948" d="M156 0v1556h196v-1372h547v-184h-743z" />
<glyph unicode="M" horiz-adv-x="1970" d="M156 0v1556h196l633 -1175l633 1175h197v-1556h-197v1153h-4l-629 -1169l-629 1169h-4v-1153h-196z" />
<glyph unicode="N" horiz-adv-x="1515" d="M147 0v1556h185l835 -1204h4v1204h197v-1556h-184l-836 1204h-4v-1204h-197z" />
<glyph unicode="O" horiz-adv-x="1855" d="M102 778.5q0 147.5 56.5 288.5t158 257t261 186.5t350 70.5t350.5 -70.5t261 -186.5t157.5 -257t56.5 -288.5t-56.5 -289t-157.5 -257t-261 -186.5t-350.5 -71t-350 71t-261 186.5t-158 257t-56.5 289zM311 778.5q0 -268.5 184.5 -443.5t432.5 -175t432 175t184 443.5 t-184 443.5t-432 175t-432.5 -175t-184.5 -443.5z" />
<glyph unicode="P" horiz-adv-x="1175" d="M156 0v1556h430q238 0 382 -153.5t144 -360t-144.5 -359.5t-381.5 -153h-234v-530h-196zM352 702h193q178 0 274 86t96 254t-96 255t-274 87h-193v-682z" />
<glyph unicode="Q" horiz-adv-x="1855" d="M102 778.5q0 147.5 56.5 288.5t158 257t261 186.5t350 70.5t350.5 -70.5t261 -186.5t157.5 -257t56.5 -289q0 -299 -201 -530l160 -160l-127 -127l-166 166q-213 -152 -491 -152q-190 0 -350 71t-261.5 186.5t-158 257t-56.5 289zM311 778.5q0 -268.5 184.5 -443.5 t432.5 -175q193 0 348 108l-158 158l127 127l164 -162q135 168 135 387q0 268 -184 443.5t-432 175.5t-432.5 -175t-184.5 -443.5z" />
<glyph unicode="R" horiz-adv-x="1290" d="M156 0v1556h448q229 0 375.5 -125.5t146.5 -345.5q0 -201 -137 -327.5t-336 -136.5l607 -621h-277l-631 664v-664h-196zM352 784q27 -2 172 -2q406 0 406 301q0 137 -88 219t-242 82h-248v-600z" />
<glyph unicode="S" horiz-adv-x="1175" d="M84 436h197q29 -289 321 -289q127 0 210 71t83 175q0 160 -242 254l-198 78q-346 135 -346 426q0 195 139 312.5t339.5 117.5t333 -120t148.5 -349h-184q-20 139 -98 218t-201 79q-150 0 -215.5 -77t-65.5 -175q0 -164 227 -248l197 -73q362 -135 363 -426 q0 -190 -138.5 -312.5t-361.5 -122.5q-219 0 -354.5 117t-153.5 344z" />
<glyph unicode="T" horiz-adv-x="1060" d="M43 1372v184h975v-184h-389v-1372h-197v1372h-389z" />
<glyph unicode="U" horiz-adv-x="1515" d="M147 1556h197v-933q0 -201 108.5 -332t305 -131t305 131t108.5 332v933h197v-991q0 -254 -173 -422t-441 -168q-262 0 -434.5 168t-172.5 422v991z" />
<glyph unicode="V" horiz-adv-x="1400" d="M43 1556h209l446 -1243h4l447 1243h209l-576 -1556h-164z" />
<glyph unicode="W" horiz-adv-x="2084" d="M35 1556h209l348 -1181h4l354 1181h185l354 -1185h4l348 1185h209l-479 -1556h-152l-375 1233h-4l-374 -1233h-152z" />
<glyph unicode="X" horiz-adv-x="1400" d="M41 0l539 793l-517 763h240l397 -602l398 602h239l-516 -763l539 -793h-244l-416 629l-415 -629h-244z" />
<glyph unicode="Y" horiz-adv-x="1290" d="M20 1556h230l395 -729l395 729h230l-527 -935v-621h-196v621z" />
<glyph unicode="Z" horiz-adv-x="1290" d="M51 0l852 1372h-776v184h1112l-852 -1372h811v-184h-1147z" />
<glyph unicode="[" horiz-adv-x="720" d="M238 -377v1933h403v-151h-219v-1630h219v-152h-403z" />
<glyph unicode="\" horiz-adv-x="948" d="M41 1581h162l704 -1606h-162z" />
<glyph unicode="]" horiz-adv-x="720" d="M80 -225h219v1630h-219v151h403v-1933h-403v152z" />
<glyph unicode="^" horiz-adv-x="1228" d="M109 635l436 868h139l436 -868h-162l-344 706l-344 -706h-161z" />
<glyph unicode="_" horiz-adv-x="1024" d="M0 -154h1024v-102h-1024v102z" />
<glyph unicode="`" horiz-adv-x="491" d="M-51 1487v16h248l165 -270h-145z" />
<glyph unicode="a" horiz-adv-x="1175" d="M66 358q0 154 124.5 260.5t337.5 106.5q195 0 330 -121v111q0 119 -93 167t-226 48q-145 0 -295 -74l-80 154q197 82 385 82q209 0 351 -91.5t142 -271.5v-729h-172v115q-133 -139 -340 -140q-201 0 -332.5 104.5t-131.5 278.5zM262 350q0 -90 73 -151.5t228.5 -61.5 t228 61.5t72.5 151.5t-72.5 151.5t-228 61.5t-228.5 -61.5t-73 -151.5z" />
<glyph unicode="b" horiz-adv-x="1400" d="M154 1556h184v-657h4q63 92 173 142.5t233 50.5q227 0 391 -159t164 -388q0 -246 -167 -408t-397 -162q-264 0 -397 189h-4v-164h-184v1556zM338 532.5q0 -159.5 112.5 -272.5t270.5 -113q154 0 269.5 110t115.5 286q0 145 -107.5 261t-283.5 116q-152 0 -264.5 -114 t-112.5 -273.5z" />
<glyph unicode="c" horiz-adv-x="1062" d="M92 530q0 231 159 396.5t388 165.5q221 0 375 -134l-125 -145q-109 106 -248 107q-145 0 -248.5 -104.5t-103.5 -291.5q0 -162 105.5 -269.5t264.5 -107.5q121 0 238 109l109 -135q-143 -145 -369 -146q-240 0 -392.5 164t-152.5 391z" />
<glyph unicode="d" horiz-adv-x="1400" d="M98 545q0 229 164 388t391 159q123 0 232.5 -50.5t173.5 -142.5h4v657h184v-1556h-184v164h-4q-133 -188 -397 -189q-229 0 -396.5 162t-167.5 408zM295 543q0 -176 115.5 -286t269.5 -110q158 0 270.5 113t112.5 272.5t-112.5 273.5t-264.5 114q-176 0 -283.5 -116 t-107.5 -261z" />
<glyph unicode="e" horiz-adv-x="1290" d="M92 535q0 233 153.5 395t397.5 162q248 0 403.5 -174.5t155.5 -454.5h-913q23 -139 126 -227.5t257 -88.5q195 0 342 172l141 -112q-207 -231 -481 -232q-270 0 -426 166.5t-156 393.5zM289 614h704q-14 133 -112.5 219.5t-239.5 86.5q-156 0 -246 -91.5t-106 -214.5z " />
<glyph unicode="f" horiz-adv-x="606" d="M39 905v162h162v162q0 162 99 247t267 93v-185h-37q-68 0 -106.5 -48t-38.5 -122v-147h174v-162h-174v-905h-184v905h-162z" />
<glyph unicode="g" horiz-adv-x="1400" d="M84 543q0 229 164 389t391 160q123 0 232.5 -50.5t172.5 -142.5h5v168h184v-920q0 -299 -147.5 -448.5t-454.5 -149.5q-291 0 -498 230l148 117q147 -184 354 -185q414 0 414 381v76h-5q-80 -94 -171 -137t-240 -43q-250 0 -399.5 174t-149.5 381zM281 543 q0 -176 115.5 -284.5t269.5 -108.5q158 0 270.5 111.5t112.5 271t-113 273.5t-264 114q-176 0 -283.5 -116t-107.5 -261z" />
<glyph unicode="h" horiz-adv-x="1175" d="M141 0v1556h185v-614h4q41 70 120.5 110t172.5 40q172 0 291.5 -99.5t119.5 -302.5v-690h-184v621q0 131 -59.5 215t-188.5 84t-202.5 -84t-73.5 -236v-600h-185z" />
<glyph unicode="i" horiz-adv-x="491" d="M117 1405q0 53 38 91t91 38t91 -38t38 -91t-38 -91t-91 -38t-91 38t-38 91zM154 0v1067h184v-1067h-184z" />
<glyph unicode="j" horiz-adv-x="491" d="M20 -279q66 0 100 48.5t34 134.5v1163h184v-1145q0 -176 -84 -268t-234 -105v172zM117 1405q0 53 38 91t91 38t91 -38t38 -91t-38 -91t-91 -38t-91 38t-38 91z" />
<glyph unicode="k" horiz-adv-x="1062" d="M154 0v1556h184v-954l450 465h242l-493 -494l503 -573h-258l-444 518v-518h-184z" />
<glyph unicode="l" horiz-adv-x="491" d="M129 319v1237h184v-1222q0 -84 34 -123t85 -39h55v-172h-75q-133 0 -208 78.5t-75 240.5z" />
<glyph unicode="m" horiz-adv-x="1855" d="M150 0v1067h184v-127h4q35 76 118 114t177 38q211 0 315 -185q90 184 348 185q180 0 295 -107.5t115 -310.5v-674h-184v653q0 131 -65.5 199t-168.5 68q-119 0 -193.5 -73t-74.5 -202v-645h-184v653q0 131 -65.5 199t-168.5 68q-119 0 -193.5 -73t-74.5 -202v-645h-184z " />
<glyph unicode="n" horiz-adv-x="1175" d="M141 0v1067h185v-125h4q41 70 120.5 110t172.5 40q172 0 291.5 -99.5t119.5 -302.5v-690h-184v621q0 131 -59.5 215t-188.5 84t-202.5 -84t-73.5 -236v-600h-185z" />
<glyph unicode="o" horiz-adv-x="1400" d="M123 532q0 229 165 394.5t412.5 165.5t412.5 -165t165 -395q0 -233 -161 -395t-417 -162t-416.5 162t-160.5 395zM319 532q0 -154 114 -269.5t267.5 -115.5t267 116t113.5 269q0 164 -112.5 276t-268 112t-268.5 -112t-113 -276z" />
<glyph unicode="p" horiz-adv-x="1400" d="M154 1067h184v-168h4q63 92 173 142.5t233 50.5q227 0 391 -159t164 -388q0 -246 -167 -408t-397 -162q-264 0 -397 189h-4v-615h-184v1518zM338 532.5q0 -159.5 112.5 -272.5t270.5 -113q154 0 269.5 110t115.5 286q0 145 -107.5 261t-283.5 116q-152 0 -264.5 -114 t-112.5 -273.5z" />
<glyph unicode="q" horiz-adv-x="1400" d="M98 545q0 229 164 388t391 159q123 0 232.5 -50.5t173.5 -142.5h4v168h184v-1518h-184v615h-4q-133 -188 -397 -189q-229 0 -396.5 162t-167.5 408zM295 543q0 -176 115.5 -286t269.5 -110q158 0 270.5 113t112.5 272.5t-112.5 273.5t-264.5 114q-176 0 -283.5 -116 t-107.5 -261z" />
<glyph unicode="r" horiz-adv-x="720" d="M154 0v1067h184v-152h4q63 115 133 146t203 31v-195q-45 10 -84 10q-117 0 -186.5 -78.5t-69.5 -222.5v-606h-184z" />
<glyph unicode="s" horiz-adv-x="948" d="M80 311h172q8 -82 70.5 -128t150.5 -46q113 0 162 47t49 107q0 53 -42 88t-146 63l-187 52q-217 59 -217 274q0 139 101.5 231.5t279.5 92.5q188 0 277.5 -97.5t89.5 -234.5h-172q-20 180 -199 180q-86 0 -139.5 -44t-53.5 -110q0 -94 119 -129l250 -71 q121 -35 172 -102.5t51 -176.5q0 -156 -114.5 -244t-272.5 -88q-184 0 -290.5 91t-110.5 245z" />
<glyph unicode="t" horiz-adv-x="606" d="M39 905v162h147v258h185v-258h170v-162h-170v-655q0 -43 18.5 -60.5t71.5 -17.5h84v-170q-27 -2 -113 -2q-139 0 -192.5 52t-53.5 177v676h-147z" />
<glyph unicode="u" horiz-adv-x="1175" d="M141 377v690h185v-621q0 -131 59 -215t188 -84t203 84t74 236v600h184v-1067h-184v125h-4q-41 -70 -121 -110t-172 -40q-172 0 -292 99.5t-120 302.5z" />
<glyph unicode="v" horiz-adv-x="1175" d="M41 1067h209l338 -821l338 821h209l-461 -1067h-172z" />
<glyph unicode="w" horiz-adv-x="1744" d="M39 1067h197l268 -772h4l266 772h197l266 -772h4l268 772h197l-393 -1067h-152l-287 834h-4l-286 -834h-152z" />
<glyph unicode="x" horiz-adv-x="1175" d="M37 0l430 545l-414 522h246l289 -385l301 385h233l-413 -522l430 -545h-246l-305 397l-318 -397h-233z" />
<glyph unicode="y" horiz-adv-x="1175" d="M16 1067h209l342 -823l346 823h197l-655 -1518h-193l199 467z" />
<glyph unicode="z" horiz-adv-x="948" d="M43 0l557 905h-500v162h805l-553 -905h527v-162h-836z" />
<glyph unicode="{" horiz-adv-x="720" d="M133 526v127q78 0 123 79t45 188v372q0 119 63.5 191.5t147.5 72.5h137v-126h-69q-94 0 -95 -199v-348q0 -229 -168 -291v-4q168 -61 168 -291v-348q0 -199 95 -199h69v-127h-137q-84 0 -147.5 73t-63.5 191v373q0 109 -45 187.5t-123 78.5z" />
<glyph unicode="|" horiz-adv-x="454" d="M152 -512v2048h151v-2048h-151z" />
<glyph unicode="}" horiz-adv-x="720" d="M72 -250h69q94 0 95 199v348q0 229 167 291v4q-168 61 -167 291v348q0 199 -95 199h-69v126h137q84 0 147.5 -72.5t63.5 -191.5v-372q0 -109 45 -188t123 -79v-127q-78 0 -123 -78.5t-45 -187.5v-373q0 -119 -63.5 -191.5t-147.5 -72.5h-137v127z" />
<glyph unicode="~" horiz-adv-x="1228" d="M141 483q94 176 256 176q90 0 238 -71q152 -72 199 -72q90 0 180 152l73 -115q-94 -176 -256 -176q-90 0 -237 72q-152 72 -199 71q-90 0 -180 -151z" />
<glyph unicode="&#xa1;" horiz-adv-x="720" d="M225 987q0 55 40 95t95.5 40t95.5 -40t40 -95t-40 -95t-95.5 -40t-95.5 40t-40 95zM262 -451v1182h197v-1182h-197z" />
<glyph unicode="&#xa2;" d="M113 530q0 231 158.5 396.5t387.5 165.5q41 0 74 -7l49 197h107l-53 -219q117 -33 198 -105l-125 -145q-55 55 -116 78l-181 -727q27 -8 68 -8q121 0 238 108l108 -135q-143 -145 -369 -145q-47 0 -88 8l-51 -211h-106l57 235q-162 57 -259 199.5t-97 314.5zM309 524 q0 -111 55.5 -198.5t149.5 -130.5l178 723q-8 2 -30 2q-145 0 -249 -105t-104 -291z" />
<glyph unicode="&#xa3;" d="M115 0q2 92 68.5 181t178.5 112q6 2 27 31.5t41.5 77t20.5 85.5q0 125 -95 234h-239v102h162q-127 147 -127 299q0 174 120.5 286t296.5 112q354 0 416 -375h-197q-14 92 -67 152.5t-148 60.5q-92 0 -158.5 -54.5t-66.5 -173.5q0 -106 152 -307h358v-102h-293 q70 -100 70 -205q0 -123 -125 -233q80 0 182.5 -57.5t169.5 -57.5q70 0 156 74v-203q-88 -55 -180 -55q-76 0 -215.5 68.5t-198.5 68.5q-113 0 -137 -121h-172z" />
<glyph unicode="&#xa4;" d="M33 344l108 109q-102 133 -102 299q0 168 102 297l-108 110l88 90l112 -108q127 104 299.5 104t298.5 -104l113 108l88 -90l-108 -110q102 -129 102 -297q0 -166 -102 -299l108 -109l-88 -90l-113 108q-127 -104 -299 -104t-299 104l-112 -108zM190 751.5 q0 -143.5 99.5 -242.5t243 -99t242.5 99t99 242.5t-99 243t-242.5 99.5t-243 -99.5t-99.5 -243z" />
<glyph unicode="&#xa5;" d="M43 1503h197l292 -680l293 680h197l-317 -692h274v-115h-326l-35 -75v-138h361v-114h-361v-369h-172v369h-360v114h360v138l-34 75h-326v115h274z" />
<glyph unicode="&#xa6;" horiz-adv-x="454" d="M152 -358v716h151v-716h-151zM152 666v716h151v-716h-151z" />
<glyph unicode="&#xa7;" d="M106 582q0 223 205 340q-190 88 -190 292q0 164 118.5 265.5t297.5 101.5q176 0 286.5 -101.5t118.5 -295.5h-184q0 109 -61.5 172t-178.5 63q-86 0 -149.5 -54t-63.5 -126q0 -92 43 -141t139 -78l203 -62q268 -82 268 -364q0 -233 -217 -336q203 -86 203 -295 q0 -158 -118.5 -258t-284.5 -100q-115 0 -201 35.5t-132 95t-68.5 123t-22.5 129.5h184q2 -109 72.5 -165t161.5 -56q96 0 154.5 51t58.5 141q0 72 -41 118t-148 81l-153 51q-300 101 -300 373zM303 590q0 -115 68.5 -172.5t163.5 -57.5q92 0 159.5 57.5t67.5 172.5 t-67.5 173t-162 58t-162 -58t-67.5 -173z" />
<glyph unicode="&#xa8;" horiz-adv-x="491" d="M-74 1362q0 53 38 91t91.5 38t91 -38t37.5 -91t-37.5 -91t-91 -38t-91.5 38t-38 91zM307 1362q0 53 38 91t91 38t91 -38t38 -91t-38 -91t-91 -38t-91 38t-38 91z" />
<glyph unicode="&#xa9;" horiz-adv-x="1638" d="M16 778q0 332 235.5 567.5t567.5 235.5t567.5 -235.5t235.5 -567.5t-235.5 -567.5t-567.5 -235.5t-567.5 235.5t-235.5 567.5zM156 778.5q0 -274.5 194.5 -469t469 -194.5t469 194.5t194.5 469t-194.5 469t-469 194.5t-469 -194.5t-194.5 -469zM373 782q0 215 127 351.5 t342 136.5q158 0 268.5 -87t132.5 -243h-145q-18 88 -87 145.5t-167 57.5q-145 0 -227 -101.5t-82 -257.5q0 -150 87 -259t226 -109q98 0 167.5 60.5t82.5 152.5h145q-31 -158 -138.5 -249t-256.5 -91q-213 0 -344 140t-131 353z" />
<glyph unicode="&#xaa;" horiz-adv-x="763" d="M31 1081q0 96 78.5 160t216.5 64q121 0 206 -72v43q0 129 -200 129q-88 0 -187 -43l-51 108q125 49 250 50q139 0 233.5 -55.5t94.5 -161.5v-445h-119v70q-86 -84 -221 -84q-131 0 -216 63t-85 174zM170 1071q0 -45 45 -79t137 -34t137.5 34t45.5 79q0 47 -46.5 83 t-138.5 36q-90 0 -135 -36t-45 -83z" />
<glyph unicode="&#xab;" d="M139 565l219 393h172l-229 -393l229 -393h-172zM553 565l219 393h172l-229 -393l229 -393h-172z" />
<glyph unicode="&#xac;" horiz-adv-x="1228" d="M96 651v152h1037v-582h-152v430h-885z" />
<glyph unicode="&#xad;" horiz-adv-x="606" d="M61 473v184h484v-184h-484z" />
<glyph unicode="&#xae;" horiz-adv-x="1638" d="M16 778q0 332 235.5 567.5t567.5 235.5t567.5 -235.5t235.5 -567.5t-235.5 -567.5t-567.5 -235.5t-567.5 235.5t-235.5 567.5zM156 778.5q0 -274.5 194.5 -469t469 -194.5t469 194.5t194.5 469t-194.5 469t-469 194.5t-469 -194.5t-194.5 -469zM512 315v926h350 q166 0 246 -64.5t80 -199.5q0 -221 -238 -254l264 -408h-174l-241 404h-148v-404h-139zM651 834h189q109 0 159 34.5t50 110.5q0 78 -50.5 112.5t-158.5 34.5h-189v-292z" />
<glyph unicode="&#xaf;" horiz-adv-x="491" d="M-63 1284v139h618v-139h-618z" />
<glyph unicode="&#xb0;" horiz-adv-x="819" d="M117 1227q0 121 86 207t206.5 86t206.5 -86t86 -207t-86 -207t-206.5 -86t-206.5 86t-86 207zM219 1227q0 -78 56.5 -134.5t134 -56.5t134 56.5t56.5 134.5t-56.5 134t-134 56t-134 -56t-56.5 -134z" />
<glyph unicode="&#xb1;" horiz-adv-x="1228" d="M96 0v152h1037v-152h-1037zM96 555v152h443v329h151v-329h443v-152h-443v-330h-151v330h-443z" />
<glyph unicode="&#xb2;" horiz-adv-x="690" d="M35 608l338 486q88 125 88 194q0 37 -34 64.5t-75 27.5q-131 0 -141 -129h-152q2 123 80 196t203 73q113 0 191.5 -59.5t78.5 -166.5q0 -80 -88 -211l-225 -335h299v-140h-563z" />
<glyph unicode="&#xb3;" horiz-adv-x="690" d="M12 766l103 76q59 -106 188 -107q72 0 131.5 45t59.5 113q0 80 -57.5 133t-145.5 53q-100 0 -170 -59l-23 24l277 361h-316v115h553l-266 -338q121 0 204 -76t83 -203t-94.5 -211t-225.5 -84q-104 0 -172 32t-129 126z" />
<glyph unicode="&#xb4;" horiz-adv-x="491" d="M129 1233l166 270h248v-16l-269 -254h-145z" />
<glyph unicode="&#xb5;" horiz-adv-x="1175" d="M141 -451v1518h185v-621q0 -131 59 -215t188 -84t203 84t74 236v600h184v-1067h-184v125h-4q-41 -70 -121 -110t-172 -40q-164 0 -223 99h-4v-525h-185z" />
<glyph unicode="&#xb6;" horiz-adv-x="1228" d="M41 1167q0 197 125 293t348 96h510v-1927h-152v1801h-243v-1801h-152v1162q-193 0 -314.5 107t-121.5 269z" />
<glyph unicode="&#xb7;" horiz-adv-x="532" d="M131 661.5q0 55.5 40 95.5t95.5 40t95 -40t39.5 -95.5t-39.5 -95.5t-95 -40t-95.5 40t-40 95.5z" />
<glyph unicode="&#xb8;" horiz-adv-x="491" d="M6 -303q104 25 168 84t102 166l179 -64q-55 -135 -149.5 -200.5t-246.5 -83.5z" />
<glyph unicode="&#xb9;" horiz-adv-x="540" d="M49 1217v139l328 164v-912h-152v711z" />
<glyph unicode="&#xba;" horiz-adv-x="909" d="M70 1180q0 139 108.5 239.5t276.5 100.5t276.5 -100.5t108.5 -239.5q0 -141 -106.5 -238.5t-278.5 -97.5t-278.5 97.5t-106.5 238.5zM221 1177.5q0 -90.5 66.5 -155t167 -64.5t167 64.5t66.5 155.5q0 92 -68.5 153.5t-164.5 61.5q-94 0 -164 -62.5t-70 -153z" />
<glyph unicode="&#xbb;" d="M121 172l229 393l-229 393h172l219 -393l-219 -393h-172zM535 172l229 393l-229 393h172l219 -393l-219 -393h-172z" />
<glyph unicode="&#xbc;" horiz-adv-x="1593" d="M80 1217v139l328 164v-912h-152v711zM233 -16l857 1536h161l-856 -1536h-162zM842 215v57l493 639h37v-581h98v-115h-98v-215h-139v215h-391zM1014 330h219v297h-4z" />
<glyph unicode="&#xbd;" horiz-adv-x="1593" d="M49 1217v139l328 164v-912h-152v711zM180 -16l856 1536h162l-856 -1536h-162zM893 0l338 485q88 125 88 195q0 37 -34 64.5t-75 27.5q-131 0 -141 -129h-151q2 123 79.5 195.5t202.5 72.5q113 0 191.5 -59t78.5 -166q0 -80 -88 -211l-225 -336h299v-139h-563z" />
<glyph unicode="&#xbe;" horiz-adv-x="1593" d="M49 766l103 76q59 -106 188 -107q72 0 131 45t59 113q0 80 -57 133t-145 53q-100 0 -170 -59l-23 24l277 361h-316v115h553l-266 -338q121 0 204 -76t83 -203t-94.5 -211t-225.5 -84q-104 0 -172 32t-129 126zM305 -16l856 1536h162l-856 -1536h-162zM842 215v57l493 639 h37v-581h98v-115h-98v-215h-139v215h-391zM1014 330h219v297h-4z" />
<glyph unicode="&#xbf;" d="M111 -41q0 92 32.5 161.5t124.5 141.5l121 94q86 68 111.5 131.5t25.5 243.5h185q0 -207 -40 -311.5t-155 -194.5l-110 -86q-53 -43 -76 -84t-23 -104q0 -96 62.5 -163t156.5 -67q115 0 173.5 73t58.5 183h196q-12 -195 -125.5 -311.5t-306.5 -116.5q-184 0 -297.5 120 t-113.5 290zM483 987q0 55 40 95t95.5 40t95.5 -40t40 -95t-40 -95t-95.5 -40t-95.5 40t-40 95z" />
<glyph unicode="&#xc0;" horiz-adv-x="1515" d="M39 0l633 1556h172l633 -1556h-215l-142 362h-725l-141 -362h-215zM461 1886v17h248l165 -271h-145zM463 535h590l-295 763z" />
<glyph unicode="&#xc1;" horiz-adv-x="1515" d="M39 0l633 1556h172l633 -1556h-215l-142 362h-725l-141 -362h-215zM463 535h590l-295 763zM641 1632l166 271h248v-17l-269 -254h-145z" />
<glyph unicode="&#xc2;" horiz-adv-x="1515" d="M39 0l633 1556h172l633 -1556h-215l-142 362h-725l-141 -362h-215zM451 1632l196 271h221l197 -271h-152l-155 156l-156 -156h-151zM463 535h590l-295 763z" />
<glyph unicode="&#xc3;" horiz-adv-x="1515" d="M39 0l633 1556h172l633 -1556h-215l-142 362h-725l-141 -362h-215zM444 1651q8 227 168 227q63 0 166 -46t125 -46q27 0 52.5 22.5t31.5 65.5h84q-8 -227 -168 -227q-63 0 -165.5 46t-125.5 46q-27 0 -52 -22.5t-32 -65.5h-84zM463 535h590l-295 763z" />
<glyph unicode="&#xc4;" horiz-adv-x="1515" d="M39 0l633 1556h172l633 -1556h-215l-142 362h-725l-141 -362h-215zM438 1782q0 53 38 91t91.5 38t91 -38t37.5 -91t-37.5 -91t-91 -38t-91.5 38t-38 91zM463 535h590l-295 763zM819 1782q0 53 38 91t91 38t91 -38t38 -91t-38 -91t-91 -38t-91 38t-38 91z" />
<glyph unicode="&#xc5;" horiz-adv-x="1515" d="M39 0l633 1556h172l633 -1556h-215l-142 362h-725l-141 -362h-215zM463 535h590l-295 763zM567 1786q0 78 56.5 134t134.5 56t134 -56t56 -134t-56 -134.5t-134 -56.5t-134.5 56.5t-56.5 134.5zM653 1786q0 -43 31 -74t74 -31t73.5 31t30.5 74t-30.5 73.5t-73.5 30.5 t-74 -30.5t-31 -73.5z" />
<glyph unicode="&#xc6;" horiz-adv-x="1972" d="M39 0l913 1556h918v-184h-594v-493h594v-185h-594v-510h594v-184h-791v362h-612l-207 -362h-221zM565 535h514v882h-4z" />
<glyph unicode="&#xc7;" horiz-adv-x="1517" d="M102 778.5q0 147.5 56.5 288.5t158 257t261 186.5t350.5 70.5q152 0 295 -55.5t239 -143.5l-133 -145q-176 160 -401 160q-250 0 -433.5 -177.5t-183.5 -441.5t185.5 -441t431.5 -177q240 0 415 166l125 -142q-104 -96 -249.5 -152.5t-290.5 -56.5q-190 0 -350 71 t-261.5 186.5t-158 257t-56.5 289zM627 -303q104 25 167.5 84t102.5 166l178 -64q-55 -135 -149.5 -200.5t-245.5 -83.5z" />
<glyph unicode="&#xc8;" horiz-adv-x="1062" d="M156 0v1556h805v-184h-609v-493h609v-185h-609v-510h609v-184h-805zM272 1886v17h248l166 -271h-145z" />
<glyph unicode="&#xc9;" horiz-adv-x="1062" d="M156 0v1556h805v-184h-609v-493h609v-185h-609v-510h609v-184h-805zM453 1632l165 271h248v-17l-268 -254h-145z" />
<glyph unicode="&#xca;" horiz-adv-x="1062" d="M156 0v1556h805v-184h-609v-493h609v-185h-609v-510h609v-184h-805zM262 1632l197 271h221l197 -271h-152l-156 156l-155 -156h-152z" />
<glyph unicode="&#xcb;" horiz-adv-x="1062" d="M156 0v1556h805v-184h-609v-493h609v-185h-609v-510h609v-184h-805zM250 1782q0 53 38 91t91 38t91 -38t38 -91t-38 -91t-91 -38t-91 38t-38 91zM631 1782q0 53 38 91t91 38t91 -38t38 -91t-38 -91t-91 -38t-91 38t-38 91z" />
<glyph unicode="&#xcc;" horiz-adv-x="491" d="M-51 1886v17h248l165 -271h-145zM147 0v1556h197v-1556h-197z" />
<glyph unicode="&#xcd;" horiz-adv-x="491" d="M129 1632l166 271h248v-17l-269 -254h-145zM147 0v1556h197v-1556h-197z" />
<glyph unicode="&#xce;" horiz-adv-x="491" d="M-61 1632l196 271h221l197 -271h-152l-155 156l-156 -156h-151zM147 0v1556h197v-1556h-197z" />
<glyph unicode="&#xcf;" horiz-adv-x="491" d="M-74 1782q0 53 38 91t91.5 38t91 -38t37.5 -91t-37.5 -91t-91 -38t-91.5 38t-38 91zM147 0v1556h197v-1556h-197zM307 1782q0 53 38 91t91 38t91 -38t38 -91t-38 -91t-91 -38t-91 38t-38 91z" />
<glyph unicode="&#xd0;" horiz-adv-x="1517" d="M41 707v172h115v677h512q295 0 521 -223t226 -549q0 -332 -231.5 -558t-565.5 -226h-462v707h-115zM352 184h264q258 0 424 175.5t166 435.5q0 248 -175 412.5t-431 164.5h-248v-493h353v-172h-353v-523z" />
<glyph unicode="&#xd1;" horiz-adv-x="1515" d="M147 0v1556h185l835 -1204h4v1204h197v-1556h-184l-836 1204h-4v-1204h-197zM444 1651q8 227 168 227q63 0 166 -46t125 -46q27 0 52.5 22.5t31.5 65.5h84q-8 -227 -168 -227q-63 0 -165.5 46t-125.5 46q-27 0 -52 -22.5t-32 -65.5h-84z" />
<glyph unicode="&#xd2;" horiz-adv-x="1855" d="M102 778.5q0 147.5 56.5 288.5t158 257t261 186.5t350 70.5t350.5 -70.5t261 -186.5t157.5 -257t56.5 -288.5t-56.5 -289t-157.5 -257t-261 -186.5t-350.5 -71t-350 71t-261 186.5t-158 257t-56.5 289zM311 778.5q0 -268.5 184.5 -443.5t432.5 -175t432 175t184 443.5 t-184 443.5t-432 175t-432.5 -175t-184.5 -443.5zM631 1886v17h248l165 -271h-145z" />
<glyph unicode="&#xd3;" horiz-adv-x="1855" d="M102 778.5q0 147.5 56.5 288.5t158 257t261 186.5t350 70.5t350.5 -70.5t261 -186.5t157.5 -257t56.5 -288.5t-56.5 -289t-157.5 -257t-261 -186.5t-350.5 -71t-350 71t-261 186.5t-158 257t-56.5 289zM311 778.5q0 -268.5 184.5 -443.5t432.5 -175t432 175t184 443.5 t-184 443.5t-432 175t-432.5 -175t-184.5 -443.5zM811 1632l166 271h248v-17l-269 -254h-145z" />
<glyph unicode="&#xd4;" horiz-adv-x="1855" d="M102 778.5q0 147.5 56.5 288.5t158 257t261 186.5t350 70.5t350.5 -70.5t261 -186.5t157.5 -257t56.5 -288.5t-56.5 -289t-157.5 -257t-261 -186.5t-350.5 -71t-350 71t-261 186.5t-158 257t-56.5 289zM311 778.5q0 -268.5 184.5 -443.5t432.5 -175t432 175t184 443.5 t-184 443.5t-432 175t-432.5 -175t-184.5 -443.5zM621 1632l196 271h221l197 -271h-152l-155 156l-156 -156h-151z" />
<glyph unicode="&#xd5;" horiz-adv-x="1855" d="M102 778.5q0 147.5 56.5 288.5t158 257t261 186.5t350 70.5t350.5 -70.5t261 -186.5t157.5 -257t56.5 -288.5t-56.5 -289t-157.5 -257t-261 -186.5t-350.5 -71t-350 71t-261 186.5t-158 257t-56.5 289zM311 778.5q0 -268.5 184.5 -443.5t432.5 -175t432 175t184 443.5 t-184 443.5t-432 175t-432.5 -175t-184.5 -443.5zM614 1651q8 227 168 227q63 0 166 -46t125 -46q27 0 52.5 22.5t31.5 65.5h84q-8 -227 -168 -227q-63 0 -165.5 46t-125.5 46q-27 0 -52 -22.5t-32 -65.5h-84z" />
<glyph unicode="&#xd6;" horiz-adv-x="1855" d="M102 778.5q0 147.5 56.5 288.5t158 257t261 186.5t350 70.5t350.5 -70.5t261 -186.5t157.5 -257t56.5 -288.5t-56.5 -289t-157.5 -257t-261 -186.5t-350.5 -71t-350 71t-261 186.5t-158 257t-56.5 289zM311 778.5q0 -268.5 184.5 -443.5t432.5 -175t432 175t184 443.5 t-184 443.5t-432 175t-432.5 -175t-184.5 -443.5zM608 1782q0 53 38 91t91.5 38t91 -38t37.5 -91t-37.5 -91t-91 -38t-91.5 38t-38 91zM989 1782q0 53 38 91t91 38t91 -38t38 -91t-38 -91t-91 -38t-91 38t-38 91z" />
<glyph unicode="&#xd7;" horiz-adv-x="1228" d="M145 154l365 364l-365 365l105 104l364 -364l365 364l104 -104l-364 -365l364 -364l-104 -105l-365 365l-364 -365z" />
<glyph unicode="&#xd8;" horiz-adv-x="1855" d="M102 778q0 147 56.5 288.5t158 257.5t261 186.5t350.5 70.5q299 0 510 -168l190 205l86 -80l-188 -203q227 -233 227 -557q0 -147 -56.5 -288.5t-157.5 -257t-261 -186.5t-350 -71q-299 0 -512 166l-189 -202l-86 79l189 203q-109 113 -168.5 259t-59.5 298zM311 778 q0 -236 154 -411l840 903q-168 127 -377 127q-248 0 -432.5 -175.5t-184.5 -443.5zM551 287q172 -127 377 -127q248 0 432 175t184 443q0 238 -153 412z" />
<glyph unicode="&#xd9;" horiz-adv-x="1515" d="M147 1556h197v-933q0 -201 108.5 -332t305 -131t305 131t108.5 332v933h197v-991q0 -254 -173 -422t-441 -168q-262 0 -434.5 168t-172.5 422v991zM461 1886v17h248l165 -271h-145z" />
<glyph unicode="&#xda;" horiz-adv-x="1515" d="M147 1556h197v-933q0 -201 108.5 -332t305 -131t305 131t108.5 332v933h197v-991q0 -254 -173 -422t-441 -168q-262 0 -434.5 168t-172.5 422v991zM641 1632l166 271h248v-17l-269 -254h-145z" />
<glyph unicode="&#xdb;" horiz-adv-x="1515" d="M147 1556h197v-933q0 -201 108.5 -332t305 -131t305 131t108.5 332v933h197v-991q0 -254 -173 -422t-441 -168q-262 0 -434.5 168t-172.5 422v991zM451 1632l196 271h221l197 -271h-152l-155 156l-156 -156h-151z" />
<glyph unicode="&#xdc;" horiz-adv-x="1515" d="M147 1556h197v-933q0 -201 108.5 -332t305 -131t305 131t108.5 332v933h197v-991q0 -254 -173 -422t-441 -168q-262 0 -434.5 168t-172.5 422v991zM438 1782q0 53 38 91t91.5 38t91 -38t37.5 -91t-37.5 -91t-91 -38t-91.5 38t-38 91zM819 1782q0 53 38 91t91 38t91 -38 t38 -91t-38 -91t-91 -38t-91 38t-38 91z" />
<glyph unicode="&#xdd;" horiz-adv-x="1290" d="M20 1556h230l395 -729l395 729h230l-527 -935v-621h-196v621zM528 1632l166 271h248v-17l-268 -254h-146z" />
<glyph unicode="&#xde;" horiz-adv-x="1175" d="M156 0v1556h196v-227h234q238 0 382 -153.5t144 -360.5t-144.5 -359.5t-381.5 -152.5h-234v-303h-196zM352 475h193q178 0 274 86t96 254t-96 255t-274 87h-193v-682z" />
<glyph unicode="&#xdf;" horiz-adv-x="1290" d="M53 905v162h148v92q0 176 110.5 293t311.5 117q186 0 293.5 -120t107.5 -253q0 -203 -162 -289v-4q150 -20 243 -135t93 -276q0 -223 -139 -363.5t-363 -140.5q-104 0 -194 32l45 166q66 -37 158 -36q119 0 207.5 87t88.5 232t-102 234.5t-262 89.5h-45v161h49 q86 0 142.5 61.5t56.5 162.5q0 102 -61.5 160.5t-166.5 58.5q-227 0 -227 -283v-1114h-184v905h-148z" />
<glyph unicode="&#xe0;" horiz-adv-x="1175" d="M66 358q0 154 124.5 260.5t337.5 106.5q195 0 330 -121v111q0 119 -93 167t-226 48q-145 0 -295 -74l-80 154q197 82 385 82q209 0 351 -91.5t142 -271.5v-729h-172v115q-133 -139 -340 -140q-201 0 -332.5 104.5t-131.5 278.5zM262 350q0 -90 73 -151.5t228.5 -61.5 t228 61.5t72.5 151.5t-72.5 151.5t-228 61.5t-228.5 -61.5t-73 -151.5zM303 1487v16h248l166 -270h-146z" />
<glyph unicode="&#xe1;" horiz-adv-x="1175" d="M66 358q0 154 124.5 260.5t337.5 106.5q195 0 330 -121v111q0 119 -93 167t-226 48q-145 0 -295 -74l-80 154q197 82 385 82q209 0 351 -91.5t142 -271.5v-729h-172v115q-133 -139 -340 -140q-201 0 -332.5 104.5t-131.5 278.5zM262 350q0 -90 73 -151.5t228.5 -61.5 t228 61.5t72.5 151.5t-72.5 151.5t-228 61.5t-228.5 -61.5t-73 -151.5zM483 1233l166 270h248v-16l-268 -254h-146z" />
<glyph unicode="&#xe2;" horiz-adv-x="1175" d="M66 358q0 154 124.5 260.5t337.5 106.5q195 0 330 -121v111q0 119 -93 167t-226 48q-145 0 -295 -74l-80 154q197 82 385 82q209 0 351 -91.5t142 -271.5v-729h-172v115q-133 -139 -340 -140q-201 0 -332.5 104.5t-131.5 278.5zM262 350q0 -90 73 -151.5t228.5 -61.5 t228 61.5t72.5 151.5t-72.5 151.5t-228 61.5t-228.5 -61.5t-73 -151.5zM293 1233l196 270h222l196 -270h-151l-156 156l-156 -156h-151z" />
<glyph unicode="&#xe3;" horiz-adv-x="1175" d="M66 358q0 154 124.5 260.5t337.5 106.5q195 0 330 -121v111q0 119 -93 167t-226 48q-145 0 -295 -74l-80 154q197 82 385 82q209 0 351 -91.5t142 -271.5v-729h-172v115q-133 -139 -340 -140q-201 0 -332.5 104.5t-131.5 278.5zM262 350q0 -90 73 -151.5t228.5 -61.5 t228 61.5t72.5 151.5t-72.5 151.5t-228 61.5t-228.5 -61.5t-73 -151.5zM287 1251q8 227 168 228q63 0 165.5 -46.5t124.5 -46.5q27 0 52.5 23t31.5 66h84q-8 -227 -168 -228q-63 0 -165.5 46t-124.5 46q-27 0 -52.5 -22.5t-31.5 -65.5h-84z" />
<glyph unicode="&#xe4;" horiz-adv-x="1175" d="M66 358q0 154 124.5 260.5t337.5 106.5q195 0 330 -121v111q0 119 -93 167t-226 48q-145 0 -295 -74l-80 154q197 82 385 82q209 0 351 -91.5t142 -271.5v-729h-172v115q-133 -139 -340 -140q-201 0 -332.5 104.5t-131.5 278.5zM262 350q0 -90 73 -151.5t228.5 -61.5 t228 61.5t72.5 151.5t-72.5 151.5t-228 61.5t-228.5 -61.5t-73 -151.5zM281 1362q0 53 37.5 91t91 38t91.5 -38t38 -91t-38 -91t-91.5 -38t-91 38t-37.5 91zM662 1362q0 53 37.5 91t91 38t91.5 -38t38 -91t-38 -91t-91.5 -38t-91 38t-37.5 91z" />
<glyph unicode="&#xe5;" horiz-adv-x="1175" d="M66 358q0 154 124.5 260.5t337.5 106.5q195 0 330 -121v111q0 119 -93 167t-226 48q-145 0 -295 -74l-80 154q197 82 385 82q209 0 351 -91.5t142 -271.5v-729h-172v115q-133 -139 -340 -140q-201 0 -332.5 104.5t-131.5 278.5zM262 350q0 -90 73 -151.5t228.5 -61.5 t228 61.5t72.5 151.5t-72.5 151.5t-228 61.5t-228.5 -61.5t-73 -151.5zM410 1378q0 78 56 134.5t134 56.5t134.5 -56.5t56.5 -134.5t-56.5 -134t-134.5 -56t-134 56t-56 134zM496 1378q0 -43 30.5 -73.5t73.5 -30.5t74 30.5t31 73.5t-31 74t-74 31t-73.5 -31t-30.5 -74z" />
<glyph unicode="&#xe6;" horiz-adv-x="1972" d="M72 358q0 154 125 260.5t338 106.5q195 0 329 -121v111q0 119 -93 167t-226 48q-143 0 -295 -74l-80 154q197 82 385 82q324 0 446 -211q49 90 157 150.5t220 60.5q233 0 378 -167t145 -399v-63h-846q6 -135 106.5 -225.5t247.5 -90.5q113 0 183.5 36t131.5 112l138 -111 q-190 -209 -459 -209q-137 0 -252 57.5t-166 147.5q-147 -205 -448 -205q-201 0 -333 104.5t-132 278.5zM268 350q0 -90 73 -151.5t228.5 -61.5t228 61.5t72.5 151.5t-72.5 151.5t-228 61.5t-228.5 -61.5t-73 -151.5zM1055 614h649q-12 137 -104.5 221.5t-219.5 84.5 q-121 0 -213 -77t-112 -229z" />
<glyph unicode="&#xe7;" horiz-adv-x="1062" d="M92 530q0 231 159 396.5t388 165.5q221 0 375 -134l-125 -145q-109 106 -248 107q-145 0 -248.5 -104.5t-103.5 -291.5q0 -162 105.5 -269.5t264.5 -107.5q121 0 238 109l109 -135q-143 -145 -369 -146q-240 0 -392.5 164t-152.5 391zM362 -303q104 25 168 84t103 166 l178 -64q-55 -135 -149.5 -200.5t-245.5 -83.5z" />
<glyph unicode="&#xe8;" horiz-adv-x="1290" d="M92 535q0 233 153.5 395t397.5 162q248 0 403.5 -174.5t155.5 -454.5h-913q23 -139 126 -227.5t257 -88.5q195 0 342 172l141 -112q-207 -231 -481 -232q-270 0 -426 166.5t-156 393.5zM289 614h704q-14 133 -112.5 219.5t-239.5 86.5q-156 0 -246 -91.5t-106 -214.5z M360 1487v16h248l166 -270h-145z" />
<glyph unicode="&#xe9;" horiz-adv-x="1290" d="M92 535q0 233 153.5 395t397.5 162q248 0 403.5 -174.5t155.5 -454.5h-913q23 -139 126 -227.5t257 -88.5q195 0 342 172l141 -112q-207 -231 -481 -232q-270 0 -426 166.5t-156 393.5zM289 614h704q-14 133 -112.5 219.5t-239.5 86.5q-156 0 -246 -91.5t-106 -214.5z M541 1233l166 270h247v-16l-268 -254h-145z" />
<glyph unicode="&#xea;" horiz-adv-x="1290" d="M92 535q0 233 153.5 395t397.5 162q248 0 403.5 -174.5t155.5 -454.5h-913q23 -139 126 -227.5t257 -88.5q195 0 342 172l141 -112q-207 -231 -481 -232q-270 0 -426 166.5t-156 393.5zM289 614h704q-14 133 -112.5 219.5t-239.5 86.5q-156 0 -246 -91.5t-106 -214.5z M350 1233l197 270h221l197 -270h-152l-156 156l-155 -156h-152z" />
<glyph unicode="&#xeb;" horiz-adv-x="1290" d="M92 535q0 233 153.5 395t397.5 162q248 0 403.5 -174.5t155.5 -454.5h-913q23 -139 126 -227.5t257 -88.5q195 0 342 172l141 -112q-207 -231 -481 -232q-270 0 -426 166.5t-156 393.5zM289 614h704q-14 133 -112.5 219.5t-239.5 86.5q-156 0 -246 -91.5t-106 -214.5z M338 1362q0 53 38 91t91 38t91 -38t38 -91t-38 -91t-91 -38t-91 38t-38 91zM719 1362q0 53 38 91t91 38t91 -38t38 -91t-38 -91t-91 -38t-91 38t-38 91z" />
<glyph unicode="&#xec;" horiz-adv-x="491" d="M-51 1487v16h248l165 -270h-145zM154 0v1067h184v-1067h-184z" />
<glyph unicode="&#xed;" horiz-adv-x="491" d="M129 1233l166 270h248v-16l-269 -254h-145zM154 0v1067h184v-1067h-184z" />
<glyph unicode="&#xee;" horiz-adv-x="491" d="M-61 1233l196 270h221l197 -270h-152l-155 156l-156 -156h-151zM154 0v1067h184v-1067h-184z" />
<glyph unicode="&#xef;" horiz-adv-x="491" d="M-74 1362q0 53 38 91t91.5 38t91 -38t37.5 -91t-37.5 -91t-91 -38t-91.5 38t-38 91zM154 0v1067h184v-1067h-184zM307 1362q0 53 38 91t91 38t91 -38t38 -91t-38 -91t-91 -38t-91 38t-38 91z" />
<glyph unicode="&#xf0;" horiz-adv-x="1400" d="M123 532q0 229 165 394.5t412 165.5q203 0 328 -138l4 4q-57 217 -287 379l-266 -114l-110 84l245 106q-125 61 -252 82l160 115q160 -41 285 -115l266 115l109 -86l-256 -109q352 -285 352 -801q0 -309 -160 -474t-418 -165q-256 0 -416.5 162t-160.5 395zM319 532 q0 -154 114 -269.5t267.5 -115.5t267 116t113.5 269q0 164 -112.5 276t-268 112t-268.5 -112t-113 -276z" />
<glyph unicode="&#xf1;" horiz-adv-x="1175" d="M141 0v1067h185v-125h4q41 70 120.5 110t172.5 40q172 0 291.5 -99.5t119.5 -302.5v-690h-184v621q0 131 -59.5 215t-188.5 84t-202.5 -84t-73.5 -236v-600h-185zM274 1251q8 227 168 228q63 0 166 -46.5t125 -46.5q27 0 52.5 23t31.5 66h84q-8 -227 -168 -228 q-63 0 -165.5 46t-125.5 46q-27 0 -52 -22.5t-32 -65.5h-84z" />
<glyph unicode="&#xf2;" horiz-adv-x="1400" d="M123 532q0 229 165 394.5t412.5 165.5t412.5 -165t165 -395q0 -233 -161 -395t-417 -162t-416.5 162t-160.5 395zM319 532q0 -154 114 -269.5t267.5 -115.5t267 116t113.5 269q0 164 -112.5 276t-268 112t-268.5 -112t-113 -276zM403 1487v16h248l166 -270h-145z" />
<glyph unicode="&#xf3;" horiz-adv-x="1400" d="M123 532q0 229 165 394.5t412.5 165.5t412.5 -165t165 -395q0 -233 -161 -395t-417 -162t-416.5 162t-160.5 395zM319 532q0 -154 114 -269.5t267.5 -115.5t267 116t113.5 269q0 164 -112.5 276t-268 112t-268.5 -112t-113 -276zM584 1233l166 270h247v-16l-268 -254 h-145z" />
<glyph unicode="&#xf4;" horiz-adv-x="1400" d="M123 532q0 229 165 394.5t412.5 165.5t412.5 -165t165 -395q0 -233 -161 -395t-417 -162t-416.5 162t-160.5 395zM319 532q0 -154 114 -269.5t267.5 -115.5t267 116t113.5 269q0 164 -112.5 276t-268 112t-268.5 -112t-113 -276zM393 1233l197 270h221l197 -270h-152 l-156 156l-155 -156h-152z" />
<glyph unicode="&#xf5;" horiz-adv-x="1400" d="M123 532q0 229 165 394.5t412.5 165.5t412.5 -165t165 -395q0 -233 -161 -395t-417 -162t-416.5 162t-160.5 395zM319 532q0 -154 114 -269.5t267.5 -115.5t267 116t113.5 269q0 164 -112.5 276t-268 112t-268.5 -112t-113 -276zM387 1251q8 227 168 228 q63 0 165.5 -46.5t125.5 -46.5q27 0 52.5 23t31.5 66h84q-8 -227 -168 -228q-63 0 -165.5 46t-125.5 46q-27 0 -52.5 -22.5t-31.5 -65.5h-84z" />
<glyph unicode="&#xf6;" horiz-adv-x="1400" d="M123 532q0 229 165 394.5t412.5 165.5t412.5 -165t165 -395q0 -233 -161 -395t-417 -162t-416.5 162t-160.5 395zM319 532q0 -154 114 -269.5t267.5 -115.5t267 116t113.5 269q0 164 -112.5 276t-268 112t-268.5 -112t-113 -276zM381 1362q0 53 38 91t91 38t91 -38 t38 -91t-38 -91t-91 -38t-91 38t-38 91zM762 1362q0 53 38 91t91 38t91 -38t38 -91t-38 -91t-91 -38t-91 38t-38 91z" />
<glyph unicode="&#xf7;" horiz-adv-x="1228" d="M96 442v152h1037v-152h-1037zM473 96.5q0 59.5 42 100.5t99.5 41t99.5 -41t42 -100.5t-42 -100.5t-99.5 -41t-99.5 41t-42 100.5zM473 940q0 59 42 100t99.5 41t99.5 -41t42 -100t-42 -100t-99.5 -41t-99.5 41t-42 100z" />
<glyph unicode="&#xf8;" horiz-adv-x="1400" d="M106 41l144 135q-127 145 -127 356q0 229 165 394.5t412 165.5q215 0 375 -131l148 141l71 -76l-145 -137q129 -156 129 -357q0 -233 -161 -395t-417 -162q-221 0 -376 127l-146 -137zM319 532q0 -123 74 -219l547 521q-104 86 -240 86q-156 0 -268.5 -112t-112.5 -276z M465 236q102 -88 235 -89q154 0 267.5 116t113.5 269q0 123 -69 226z" />
<glyph unicode="&#xf9;" horiz-adv-x="1175" d="M141 377v690h185v-621q0 -131 59 -215t188 -84t203 84t74 236v600h184v-1067h-184v125h-4q-41 -70 -121 -110t-172 -40q-172 0 -292 99.5t-120 302.5zM291 1487v16h248l166 -270h-146z" />
<glyph unicode="&#xfa;" horiz-adv-x="1175" d="M141 377v690h185v-621q0 -131 59 -215t188 -84t203 84t74 236v600h184v-1067h-184v125h-4q-41 -70 -121 -110t-172 -40q-172 0 -292 99.5t-120 302.5zM471 1233l166 270h248v-16l-269 -254h-145z" />
<glyph unicode="&#xfb;" horiz-adv-x="1175" d="M141 377v690h185v-621q0 -131 59 -215t188 -84t203 84t74 236v600h184v-1067h-184v125h-4q-41 -70 -121 -110t-172 -40q-172 0 -292 99.5t-120 302.5zM281 1233l196 270h221l197 -270h-152l-155 156l-156 -156h-151z" />
<glyph unicode="&#xfc;" horiz-adv-x="1175" d="M141 377v690h185v-621q0 -131 59 -215t188 -84t203 84t74 236v600h184v-1067h-184v125h-4q-41 -70 -121 -110t-172 -40q-172 0 -292 99.5t-120 302.5zM268 1362q0 53 38 91t91.5 38t91 -38t37.5 -91t-37.5 -91t-91 -38t-91.5 38t-38 91zM649 1362q0 53 38 91t91 38 t91 -38t38 -91t-38 -91t-91 -38t-91 38t-38 91z" />
<glyph unicode="&#xfd;" horiz-adv-x="1175" d="M16 1067h209l342 -823l346 823h197l-655 -1518h-193l199 467zM471 1233l166 270h248v-16l-269 -254h-145z" />
<glyph unicode="&#xfe;" horiz-adv-x="1400" d="M154 1556h184v-657h4q63 92 173 142.5t233 50.5q227 0 391 -159t164 -388q0 -246 -167 -408t-397 -162q-264 0 -397 189h-4v-615h-184v2007zM338 532.5q0 -159.5 112.5 -272.5t270.5 -113q154 0 269.5 110t115.5 286q0 145 -107.5 261t-283.5 116q-152 0 -264.5 -114 t-112.5 -273.5z" />
<glyph unicode="&#xff;" horiz-adv-x="1175" d="M16 1067h209l342 -823l346 823h197l-655 -1518h-193l199 467zM268 1362q0 53 38 91t91.5 38t91 -38t37.5 -91t-37.5 -91t-91 -38t-91.5 38t-38 91zM649 1362q0 53 38 91t91 38t91 -38t38 -91t-38 -91t-91 -38t-91 38t-38 91z" />
<glyph unicode="&#x152;" horiz-adv-x="2086" d="M80 778q0 209 73.5 388.5t231.5 297t375 117.5q322 0 471 -229l4 -2v206h750v-184h-562v-514h562v-184h-562v-490h562v-184h-750v205h-4q-150 -229 -471 -230q-217 0 -375 118t-231.5 297t-73.5 388zM276 778q0 -121 27 -229.5t81 -200.5t150.5 -146.5t225.5 -54.5 q127 0 223 54.5t150.5 146.5t80 200.5t25.5 229.5t-25.5 229.5t-80 200.5t-150.5 146.5t-223 54.5q-129 0 -225.5 -54.5t-150.5 -146.5t-81 -200.5t-27 -229.5z" />
<glyph unicode="&#x153;" horiz-adv-x="2086" d="M84 524q0 141 57.5 267.5t184.5 213.5t301 87q279 0 434 -230q84 119 180 174.5t240 55.5q233 0 377.5 -167t144.5 -399v-63h-858q12 -135 115.5 -225.5t250.5 -90.5q113 0 183.5 36t132.5 112l137 -111q-190 -209 -459 -209q-301 0 -450 232q-66 -115 -177.5 -173.5 t-250.5 -58.5q-246 0 -394.5 160t-148.5 389zM281 530q0 -162 94 -272.5t251.5 -110.5t252 111t94.5 272q0 156 -91 273t-255 117t-255 -117t-91 -273zM1145 614h661q-12 137 -104 221.5t-219 84.5q-123 0 -216 -74t-122 -232z" />
<glyph unicode="&#x178;" horiz-adv-x="1290" d="M20 1556h230l395 -729l395 729h230l-527 -935v-621h-196v621zM326 1782q0 53 37.5 91t91 38t91.5 -38t38 -91t-38 -91t-91.5 -38t-91 38t-37.5 91zM707 1782q0 53 37.5 91t91 38t91.5 -38t38 -91t-38 -91t-91.5 -38t-91 38t-37.5 91z" />
<glyph unicode="&#x2c6;" horiz-adv-x="491" d="M-61 1233l196 270h221l197 -270h-152l-155 156l-156 -156h-151z" />
<glyph unicode="&#x2dc;" horiz-adv-x="491" d="M-68 1251q8 227 168 228q63 0 166 -46.5t125 -46.5q27 0 52.5 23t31.5 66h84q-8 -227 -168 -228q-63 0 -165.5 46t-125.5 46q-27 0 -52 -22.5t-32 -65.5h-84z" />
<glyph unicode="&#x2013;" horiz-adv-x="1024" d="M0 485v162h1024v-162h-1024z" />
<glyph unicode="&#x2014;" horiz-adv-x="2048" d="M0 485v162h2048v-162h-2048z" />
<glyph unicode="&#x2018;" horiz-adv-x="606" d="M113 1057l249 499l132 -63l-191 -514z" />
<glyph unicode="&#x2019;" horiz-adv-x="606" d="M113 1042l190 514l191 -77l-250 -500z" />
<glyph unicode="&#x201a;" horiz-adv-x="606" d="M76 -279l190 515l191 -78l-250 -500z" />
<glyph unicode="&#x201c;" d="M129 1057l250 499l131 -63l-191 -514zM555 1057l250 499l131 -63l-191 -514z" />
<glyph unicode="&#x201d;" d="M129 1042l190 514l191 -77l-250 -500zM555 1042l190 514l191 -77l-250 -500z" />
<glyph unicode="&#x201e;" d="M106 -279l191 515l190 -78l-249 -500zM532 -279l191 515l190 -78l-249 -500z" />
<glyph unicode="&#x2022;" horiz-adv-x="1024" d="M123 778q0 162 113.5 275.5t275.5 113.5t275.5 -113.5t113.5 -275.5t-113.5 -275.5t-275.5 -113.5t-275.5 113.5t-113.5 275.5z" />
<glyph unicode="&#x2026;" horiz-adv-x="2048" d="M207 118.5q0 55.5 40 95.5t95 40t95 -40t40 -95.5t-40 -95t-95 -39.5t-95 39.5t-40 95zM889 118.5q0 55.5 40 95.5t95 40t95 -40t40 -95.5t-40 -95t-95 -39.5t-95 39.5t-40 95zM1571 118.5q0 55.5 40 95.5t95 40t95 -40t40 -95.5t-40 -95t-95 -39.5t-95 39.5t-40 95z" />
<glyph unicode="&#x2039;" horiz-adv-x="606" d="M113 565l219 393h172l-230 -393l230 -393h-172z" />
<glyph unicode="&#x203a;" horiz-adv-x="606" d="M102 172l230 393l-230 393h172l220 -393l-220 -393h-172z" />
<glyph unicode="&#x20ac;" d="M49 539l43 137h90q-2 18 -2 78q0 55 2 77h-133l43 138h101q31 260 150.5 404.5t336.5 144.5q195 0 299 -82v-172q-98 94 -277 94q-150 0 -232.5 -104.5t-98.5 -284.5h528l-45 -138h-500q0 -10 -1 -37.5t-1 -39.5q0 -14 1 -41t1 -37h451l-45 -137h-389q41 -397 334 -398 q170 0 274 97v-177q-88 -76 -301 -75q-420 0 -481 553h-148z" />
<glyph unicode="&#x2122;" horiz-adv-x="2027" d="M74 1442v114h671v-114h-260v-729h-151v729h-260zM889 713v843h231l240 -622l239 622h232v-843h-152v692h-4l-264 -692h-102l-265 692h-4v-692h-151z" />
<glyph unicode="&#xe000;" horiz-adv-x="1065" d="M0 1065h1065v-1065h-1065v1065z" />
<glyph unicode="&#xfb01;" horiz-adv-x="1062" d="M39 905v162h162v162q0 162 99 247t267 93v-185h-37q-68 0 -106.5 -48t-38.5 -122v-147h174v-162h-174v-905h-184v905h-162zM688 1405q0 53 38 91t91 38t91 -38t38 -91t-38 -91t-91 -38t-91 38t-38 91zM725 0v1067h184v-1067h-184z" />
<glyph unicode="&#xfb02;" horiz-adv-x="1062" d="M39 905v162h156v162q0 162 99 247t265 93v-185h-35q-68 0 -106.5 -48t-38.5 -122v-147h180v-162h-174v-905h-184v905h-162zM725 1556h184v-1222q0 -84 34 -123t85 -39h55v-172h-75q-133 0 -208 79t-75 240v1237z" />
<glyph unicode="&#xfb03;" horiz-adv-x="1703" d="M39 905v162h162v162q0 162 99 247t267 93v-185h-37q-68 0 -106.5 -48t-38.5 -122v-147h174v-162h-174v-905h-184v905h-162zM645 905v162h162v162q0 162 99.5 247t267.5 93v-185h-37q-68 0 -107 -48t-39 -122v-147h174v-162h-174v-905h-184v905h-162zM1329 1405 q0 53 38 91t91 38t91 -38t38 -91t-38 -91t-91 -38t-91 38t-38 91zM1366 0v1067h184v-1067h-184z" />
<glyph unicode="&#xfb04;" horiz-adv-x="1703" d="M39 905v162h162v162q0 162 99 247t267 93v-185h-37q-68 0 -106.5 -48t-38.5 -122v-147h174v-162h-174v-905h-184v905h-162zM645 905v162h162v162q0 162 99.5 247t267.5 93v-185h-37q-68 0 -107 -48t-39 -122v-147h174v-162h-174v-905h-184v905h-162zM1341 319v1237h185 v-1222q0 -84 33.5 -123t85.5 -39h55v-172h-76q-133 0 -208 78.5t-75 240.5z" />
</font>
</defs>
</svg>
