<?xml version="1.0" standalone="no"?>
<!DOCTYPE svg PUBLIC "-//W3C//DTD SVG 1.1//EN" "http://www.w3.org/Graphics/SVG/1.1/DTD/svg11.dtd" >
<svg xmlns="http://www.w3.org/2000/svg">
<metadata>
This is a custom SVG webfont generated by Font Squirrel.
Copyright   :  1990 1992 Adobe Systems Incorporated All rights reserved
Designer    : Linotype Staff
Foundry URL : httpwwwadobecomtype
</metadata>
<defs>
<font id="DIN30640SNeuzeitGroteskBdCond" horiz-adv-x="835" >
<font-face units-per-em="2048" ascent="1556" descent="-492" />
<missing-glyph horiz-adv-x="491" />
<glyph unicode=" "  horiz-adv-x="491" />
<glyph unicode="&#x09;" horiz-adv-x="491" />
<glyph unicode="&#xa0;" horiz-adv-x="491" />
<glyph unicode="!" horiz-adv-x="491" d="M123 110.5q0 51.5 36 87t87 35.5t87 -35.5t36 -87t-36 -87t-87 -35.5t-87 35.5t-36 87zM131 1507h229l-38 -1118h-152z" />
<glyph unicode="&#x22;" horiz-adv-x="720" d="M145 1090v417h152v-417h-152zM424 1090v417h151v-417h-151z" />
<glyph unicode="#" d="M0 442v129h174l35 297h-160v129h174l51 443h127l-51 -443h197l51 443h127l-49 -443h160v-129h-174l-35 -297h159v-129h-174l-51 -442h-127l51 442h-196l-51 -442h-127l49 442h-160zM303 571h197l32 297h-196z" />
<glyph unicode="$" d="M6 299l191 45q18 -100 57 -146t117 -55v498q-178 104 -260 209.5t-82 251.5q0 158 94 259t248 103v117h96v-117q152 -4 236.5 -71.5t117.5 -214.5l-180 -64q-14 98 -56 138t-118 44v-465q180 -111 271 -218t91 -259q0 -156 -100 -265t-262 -114v-143h-96v143 q-154 4 -250.5 84t-114.5 240zM217 1128q0 -125 154 -241v409q-154 -21 -154 -168zM467 143q80 16 127 67.5t47 127.5q0 68 -40 121t-134 127v-443z" />
<glyph unicode="%" horiz-adv-x="1593" d="M168 1132.5q0 149.5 62.5 240.5t193.5 91t193.5 -91t62.5 -240.5t-62.5 -240.5t-193.5 -91t-193.5 91t-62.5 240.5zM291 -41l883 1522h131l-883 -1522h-131zM336 1132.5q0 -100.5 20.5 -146.5t67.5 -46t67.5 46t20.5 146.5t-20.5 146.5t-67.5 46t-67.5 -46t-20.5 -146.5z M913 307.5q0 149.5 62.5 240.5t193.5 91t193.5 -91t62.5 -240.5t-62.5 -241t-193.5 -91.5t-193.5 91.5t-62.5 241zM1081 307.5q0 -100.5 20.5 -146.5t68 -46t67.5 46t20 146.5t-20 146.5t-67.5 46t-68 -46t-20.5 -146.5z" />
<glyph unicode="&#x26;" horiz-adv-x="1062" d="M82 350q0 227 287 443q-100 195 -101 327q0 121 76 198t195 77q111 0 192.5 -74t81.5 -201q0 -211 -211 -370l186 -365l99 141l143 -116l-149 -201l108 -209h-209l-43 94q-106 -113 -295 -112q-170 0 -265 106t-95 262zM281 365q0 -84 53 -144.5t133 -60.5q106 0 176 80 l-188 389q-174 -117 -174 -264zM457 1108q0 -98 71 -201q96 102 97 201q0 51 -23.5 80t-60.5 29t-60.5 -29t-23.5 -80z" />
<glyph unicode="'" horiz-adv-x="491" d="M170 1090v417h152v-417h-152z" />
<glyph unicode="(" horiz-adv-x="606" d="M150 622.5q0 542.5 231 972.5l176 -88q-209 -399 -209 -884.5t209 -884.5l-176 -88q-231 430 -231 972.5z" />
<glyph unicode=")" horiz-adv-x="606" d="M49 -262q209 399 209 884.5t-209 884.5l176 88q231 -430 231.5 -972.5t-231.5 -972.5z" />
<glyph unicode="*" horiz-adv-x="720" d="M72 1255l34 111l205 -76l-8 217h115l-8 -217l204 76l35 -111l-209 -59l133 -170l-92 -68l-121 181l-120 -181l-93 68l134 170z" />
<glyph unicode="+" horiz-adv-x="1228" d="M96 442v152h443v442h151v-442h443v-152h-443v-442h-151v442h-443z" />
<glyph unicode="," horiz-adv-x="491" d="M29 -176l129 436h219l-180 -436h-168z" />
<glyph unicode="-" horiz-adv-x="606" d="M104 492v178h398v-178h-398z" />
<glyph unicode="." horiz-adv-x="491" d="M123 110.5q0 51.5 36 87t87 35.5t87 -35.5t36 -87t-36 -87t-87 -35.5t-87 35.5t-36 87z" />
<glyph unicode="/" horiz-adv-x="606" d="M33 -31l389 1569h151l-389 -1569h-151z" />
<glyph unicode="0" d="M74 743q0 106 3 182t14 167.5t35 151t59.5 113.5t95 80.5t137.5 26.5t137 -26.5t95 -80.5t59.5 -113.5t35 -151t14.5 -167t3 -182.5q0 -150 -7 -256t-28.5 -208.5t-58.5 -165t-99.5 -100.5t-150.5 -38t-150.5 38t-99.5 100.5t-58.5 165t-28.5 208.5t-7 256zM283 743 q0 -326 27.5 -452.5t107.5 -126.5q88 0 111.5 114.5t23.5 464.5q0 319 -24.5 426t-110.5 107t-110.5 -107t-24.5 -426z" />
<glyph unicode="1" horiz-adv-x="606" d="M41 1036v189q190 86 358 239h39v-1464h-209v1153q-27 -29 -87 -66t-101 -51z" />
<glyph unicode="2" d="M57 0l344 668q158 311 158 438q0 70 -35 120t-94 50q-74 0 -105.5 -63.5t-37.5 -192.5h-209q0 444 360 444q160 0 250 -103.5t90 -244.5q0 -82 -38 -192.5t-74.5 -183t-104.5 -195.5l-194 -357h393v-188h-703z" />
<glyph unicode="3" d="M74 395h209q0 -113 29.5 -172t103.5 -59q137 0 137 293q0 131 -40 207.5t-122 76.5q-76 0 -125 -69l-123 94l303 485h-342v189h652v-25l-332 -528q25 6 72 6q266 0 266 -463q0 -201 -97.5 -328t-265.5 -127q-164 0 -244.5 110.5t-80.5 309.5z" />
<glyph unicode="4" d="M25 272v144l428 1024h188v-989h154v-179h-154v-272h-199v272h-417zM190 451h252v616h-4z" />
<glyph unicode="5" d="M74 367v49h198q0 -109 31 -185.5t100 -76.5q150 0 150 356q0 307 -143 307q-49 0 -85 -37t-40 -116h-179l9 776h600v-189h-412l-8 -356l4 -4q66 104 197 104q106 0 186 -112.5t80 -354.5q0 -553 -344 -553q-186 0 -265 115t-79 277z" />
<glyph unicode="6" d="M61 469q0 201 79 408.5t290 562.5h246q-115 -162 -297 -508h4q49 27 111 26q111 0 189.5 -115.5t78.5 -379.5q0 -90 -18.5 -172t-57.5 -155t-109.5 -117t-164.5 -44q-176 0 -263.5 131.5t-87.5 362.5zM270 473q0 -123 35 -221t113 -98q135 0 135 319q0 307 -131 307 q-152 0 -152 -307z" />
<glyph unicode="7" d="M94 1251v189h690l-471 -1440h-209l412 1251h-422z" />
<glyph unicode="8" d="M74 403q0 147 43 239.5t143 137.5q-92 45 -126 116t-34 187q0 170 83 275.5t234.5 105.5t234.5 -105.5t83 -275.5q0 -117 -33.5 -187.5t-126.5 -115.5q100 -45 143.5 -137t43.5 -240q0 -113 -30 -203.5t-110.5 -157.5t-203.5 -67t-204 67t-110.5 157.5t-29.5 203.5z M283 424q0 -260 135 -260t135 260q0 254 -135 254t-135 -254zM299 1077q0 -221 119 -221t119 221q0 209 -119 209t-119 -209z" />
<glyph unicode="9" d="M74 977q0 90 18.5 172t57 154.5t109.5 116.5t165 44q176 0 263 -131t87 -362q0 -201 -79 -409t-289 -562h-246q115 162 297 508h-4q-49 -27 -111 -27q-111 0 -189.5 116t-78.5 380zM283 967q0 -307 131 -308q152 0 151 308q0 123 -34.5 221t-112.5 98q-135 0 -135 -319z " />
<glyph unicode=":" horiz-adv-x="491" d="M123 110.5q0 51.5 36 87t87 35.5t87 -35.5t36 -87t-36 -87t-87 -35.5t-87 35.5t-36 87zM123 966.5q0 51.5 36 87.5t87 36t87 -36t36 -87.5t-36 -87t-87 -35.5t-87 35.5t-36 87z" />
<glyph unicode=";" horiz-adv-x="491" d="M29 -176l129 436h219l-180 -436h-168zM123 966.5q0 51.5 36 87.5t87 36t87 -36t36 -87.5t-36 -87t-87 -35.5t-87 35.5t-36 87z" />
<glyph unicode="&#x3c;" horiz-adv-x="1228" d="M96 449v139l1037 465v-152l-848 -383l848 -383v-151z" />
<glyph unicode="=" horiz-adv-x="1228" d="M96 233v152h1037v-152h-1037zM96 651v152h1037v-152h-1037z" />
<glyph unicode="&#x3e;" horiz-adv-x="1228" d="M96 -16v151l848 383l-848 383v152l1037 -465v-139z" />
<glyph unicode="?" horiz-adv-x="720" d="M41 1102v33q0 184 83 293.5t251 109.5q133 0 219 -87t86 -263q0 -94 -20.5 -158.5t-75.5 -148.5l-90 -136q-49 -72 -63.5 -144.5t-18.5 -211.5h-179q6 184 21.5 258t58.5 144l86 139q45 72 58.5 123t13.5 139t-24.5 128t-81.5 40q-37 0 -60.5 -19.5t-35 -58.5t-15.5 -79 t-4 -101h-209zM201 110.5q0 51.5 35.5 87t87 35.5t87 -35.5t35.5 -87t-35.5 -87t-87 -35.5t-87 35.5t-35.5 87z" />
<glyph unicode="@" horiz-adv-x="1638" d="M35 753.5q0 325.5 239.5 555t579.5 229.5q311 0 530.5 -183.5t219.5 -463.5q0 -133 -54.5 -252t-135.5 -192.5t-169 -115.5t-164 -42q-57 0 -95 32.5t-46 96.5h-4q-47 -55 -116.5 -92t-139.5 -37q-137 0 -228.5 97t-91.5 237q0 221 143.5 398t358.5 177q170 0 250 -162 l41 127h152l-179 -581q-18 -66 -18 -105q0 -49 41 -49q111 0 207 141.5t96 304.5q0 242 -174 388.5t-428 146.5q-285 0 -474.5 -191.5t-189.5 -470t197 -464t481 -185.5q158 0 299.5 62.5t233.5 173.5h151q-109 -170 -293 -267.5t-401 -97.5q-340 0 -579.5 229.5t-239.5 555 zM528 639q0 -88 52.5 -143.5t134.5 -55.5q133 0 231 139.5t98 274.5q0 78 -54 135.5t-130 57.5q-137 0 -234.5 -133.5t-97.5 -274.5z" />
<glyph unicode="A" horiz-adv-x="948" d="M41 0l317 1507h209l340 -1507h-219l-59 311h-330l-59 -311h-199zM332 479h266l-131 688h-4z" />
<glyph unicode="B" horiz-adv-x="948" d="M115 0v1507h293q121 0 207.5 -35.5t131 -95t63.5 -120t19 -126.5q0 -125 -47 -200.5t-155 -122.5q236 -76 235 -369q0 -49 -8 -99t-35.5 -114.5t-74 -111.5t-131.5 -80t-195 -33h-303zM324 889h32q264 0 265 221q0 109 -60.5 164t-195.5 55h-41v-440zM324 178 q166 0 242.5 61.5t76.5 204.5q0 276 -289 277h-30v-543z" />
<glyph unicode="C" horiz-adv-x="948" d="M76 764q0 774 426 774q276 0 360 -344l-207 -70q-35 225 -155 226q-205 0 -205 -578q0 -287 43 -450.5t156 -163.5q78 0 124 84t62 209l201 -72q-27 -184 -122 -297t-270 -113q-213 0 -313 185.5t-100 609.5z" />
<glyph unicode="D" horiz-adv-x="948" d="M115 0v1507h241q115 0 205 -43t145.5 -113.5t91.5 -171t50 -207t14 -231.5q0 -133 -22.5 -253.5t-74.5 -235.5t-152.5 -183.5t-239.5 -68.5h-258zM324 1329v-1151q319 0 319 578q0 281 -81.5 427t-237.5 146z" />
<glyph unicode="E" horiz-adv-x="720" d="M115 0v1507h549v-178h-340v-440h340v-178h-340v-533h340v-178h-549z" />
<glyph unicode="F" horiz-adv-x="720" d="M115 0v1507h549v-178h-340v-440h340v-178h-340v-711h-209z" />
<glyph unicode="G" horiz-adv-x="948" d="M76 754q0 170 17.5 301t59.5 245.5t123.5 176t198.5 61.5q276 0 356 -334l-202 -76q-29 221 -154 222q-180 0 -180 -629q0 -264 38 -413.5t142 -149.5q98 0 136 130t44 392h-213v188h422v-174q0 -725 -389 -725q-88 0 -155.5 30t-109.5 88t-69.5 127t-41 165t-18.5 180 t-5 195z" />
<glyph unicode="H" horiz-adv-x="948" d="M115 0v1507h209v-618h301v618h209v-1507h-209v711h-301v-711h-209z" />
<glyph unicode="I" horiz-adv-x="491" d="M141 0v1507h209v-1507h-209z" />
<glyph unicode="J" horiz-adv-x="720" d="M35 104l141 144q45 -100 117 -101q49 0 76.5 35t27.5 88v1237h209v-1216q0 -137 -71.5 -229.5t-225.5 -92.5q-180 0 -274 135z" />
<glyph unicode="K" horiz-adv-x="948" d="M115 0v1507h209v-682h4l329 682h226l-361 -706l385 -801h-233l-346 752h-4v-752h-209z" />
<glyph unicode="L" horiz-adv-x="720" d="M141 0v1507h209v-1319h336v-188h-545z" />
<glyph unicode="M" horiz-adv-x="1290" d="M115 0v1507h225l303 -1005h4l303 1005h226v-1507h-199v1004h-4l-248 -857h-160l-248 857h-4v-1004h-198z" />
<glyph unicode="N" horiz-adv-x="948" d="M115 0v1507h209l307 -954h4v954h199v-1507h-209l-308 954h-4v-954h-198z" />
<glyph unicode="O" horiz-adv-x="948" d="M76 754q0 170 17.5 301t59.5 245.5t123.5 176t198.5 61.5q88 0 154.5 -29.5t108.5 -88t70 -127t41 -165t18 -180.5t5 -194q0 -170 -17 -301t-59 -246t-123 -176.5t-198 -61.5q-88 0 -155.5 30t-109.5 88t-69.5 127t-41 165t-18.5 180t-5 195zM295 721q0 -264 38 -413.5 t142 -149.5q102 0 140 161.5t38 481.5q0 217 -24.5 343t-61.5 166t-92 40q-180 0 -180 -629z" />
<glyph unicode="P" horiz-adv-x="833" d="M115 0v1507h211q451 0 450 -467q0 -217 -106.5 -344t-311.5 -127h-34v-569h-209zM324 748q233 0 233 296q0 285 -233 285v-581z" />
<glyph unicode="Q" horiz-adv-x="948" d="M76 754q0 170 17.5 301t59.5 245.5t123.5 176t198.5 61.5q88 0 154.5 -29.5t108.5 -88t70 -127t41 -165t18 -180.5t5 -194q0 -473 -139 -658l92 -141l-157 -105l-76 140q-37 -12 -55 -17q-41 -4 -62 -4q-88 0 -155.5 30t-109.5 88t-69.5 127t-41 165t-18.5 180t-5 195z M295 721q0 -264 38 -413.5t142 -149.5q14 0 23 2l-76 139l131 76l55 -84q45 143 45 510q0 217 -24.5 343t-61.5 166t-92 40q-180 0 -180 -629z" />
<glyph unicode="R" horiz-adv-x="948" d="M127 0v1507h338q172 0 280.5 -113.5t108.5 -299.5q0 -125 -67.5 -232.5t-190.5 -140.5l305 -721h-239l-277 690h-49v-690h-209zM336 1329v-461q156 0 227.5 55.5t71.5 184.5q0 96 -60.5 158.5t-166.5 62.5h-72z" />
<glyph unicode="S" horiz-adv-x="833" d="M53 330l199 63q23 -246 168 -246q61 0 106 49.5t45 135.5q0 139 -147 286l-164 162q-100 100 -143 193.5t-43 206.5q0 162 99 260t237 98q156 0 248 -88t96 -242l-189 -67q-14 209 -151 209q-59 0 -95 -46.5t-36 -111.5q0 -129 141 -268l170 -166q104 -102 145 -195.5 t41 -216.5q0 -162 -95 -269.5t-267 -107.5q-156 0 -251.5 93.5t-113.5 267.5z" />
<glyph unicode="T" d="M47 1319v188h741v-188h-266v-1319h-209v1319h-266z" />
<glyph unicode="U" horiz-adv-x="946" d="M115 373v1134h209v-1132q0 -217 151 -217q147 0 148 217v1132h208v-1134q0 -403 -356 -404q-170 0 -265 92.5t-95 311.5z" />
<glyph unicode="V" horiz-adv-x="833" d="M41 1507h219l164 -1061h4l156 1061h209l-271 -1507h-198z" />
<glyph unicode="W" horiz-adv-x="1290" d="M35 1507h219l141 -1061h4l136 1061h219l137 -1061h4l152 1061h208l-258 -1507h-198l-152 1065h-4l-151 -1065h-199z" />
<glyph unicode="X" horiz-adv-x="833" d="M41 0l270 782l-248 725h220l127 -483h4l137 483h219l-250 -725l273 -782h-220l-159 547h-4l-150 -547h-219z" />
<glyph unicode="Y" horiz-adv-x="833" d="M41 1507h219l164 -628h4l156 628h209l-267 -899v-608h-209v608z" />
<glyph unicode="Z" horiz-adv-x="833" d="M41 0l473 1329h-426v178h705l-471 -1329h432v-178h-713z" />
<glyph unicode="[" horiz-adv-x="606" d="M190 -315v1876h328v-179h-129v-1519h129v-178h-328z" />
<glyph unicode="\" horiz-adv-x="606" d="M33 1538h151l389 -1569h-151z" />
<glyph unicode="]" horiz-adv-x="606" d="M88 -137h129v1519h-129v179h328v-1876h-328v178z" />
<glyph unicode="^" horiz-adv-x="1228" d="M113 571l430 869h139l434 -869h-151l-355 701l-346 -701h-151z" />
<glyph unicode="_" horiz-adv-x="1024" d="M0 -154h1024v-102h-1024v102z" />
<glyph unicode="`" horiz-adv-x="417" d="M-55 1507h235l150 -278h-152z" />
<glyph unicode="a" horiz-adv-x="796" d="M55 293q0 215 89 302t296 87h74v141q0 129 -125 129q-59 0 -89 -32.5t-38 -106.5l-176 49q39 258 313 258q303 0 303 -289v-831h-188v162h-4q-80 -180 -229 -180q-35 0 -69 12t-72 42t-61.5 96.5t-23.5 160.5zM254 317q0 -82 22.5 -124.5t83.5 -42.5q55 0 104.5 61 t49.5 174v145h-51q-127 0 -168 -56.5t-41 -156.5z" />
<glyph unicode="b" d="M109 0v1507h188v-577h4q35 102 84 146t127 44q250 0 250 -567q0 -270 -64.5 -420.5t-191.5 -150.5q-147 0 -205 198l-4 2v-182h-188zM297 551q0 -391 129 -391q127 0 127 391t-127 391q-129 0 -129 -391z" />
<glyph unicode="c" horiz-adv-x="720" d="M74 532q0 307 76.5 447.5t244.5 140.5q131 0 197.5 -89t71.5 -210l-189 -41q-2 84 -22.5 123t-67.5 39q-37 0 -59.5 -25.5t-38 -114.5t-15.5 -253q0 -389 115 -389q49 0 73.5 43t35.5 145l178 -61q-23 -154 -91.5 -229.5t-195.5 -75.5q-160 0 -236.5 132.5t-76.5 417.5z " />
<glyph unicode="d" d="M74 553q0 567 250 567q78 0 127 -44t84 -146h4v577h188v-1507h-188v182l-4 -2q-57 -199 -205 -198q-127 0 -191.5 150.5t-64.5 420.5zM283 551q0 -391 127 -391q129 0 129 391t-129 391q-127 0 -127 -391z" />
<glyph unicode="e" horiz-adv-x="833" d="M86 580q0 541 340 540q150 0 236 -113.5t86 -318.5v-158h-463q0 -90 5 -145t18.5 -115.5t42 -90t75.5 -29.5q61 0 91 58t34 136h178q-2 -152 -81 -257t-226 -105q-176 0 -256 137t-80 461zM285 682h274q0 113 -32.5 191.5t-106.5 78.5q-135 0 -135 -270z" />
<glyph unicode="f" horiz-adv-x="493" d="M41 924v178h106v164q0 133 43 196.5t168 63.5q57 0 95 -6v-189q-12 6 -37 6q-70 0 -70 -86v-149h107v-178h-107v-924h-199v924h-106z" />
<glyph unicode="g" d="M74 553q0 567 250 567q84 0 134 -48t87 -150h4v180h178v-1170q0 -147 -87 -241t-249 -94q-211 0 -307 149l160 111q51 -92 147 -93q84 0 116 76t32 246v94h-4q-57 -199 -205 -198q-127 0 -191.5 150.5t-64.5 420.5zM283 551q0 -391 127 -391q129 0 129 391t-129 391 q-127 0 -127 -391z" />
<glyph unicode="h" horiz-adv-x="833" d="M109 0v1507h198v-530h4q68 143 207 143q84 0 145.5 -69.5t61.5 -173.5v-877h-199v797q0 63 -26.5 99t-69.5 36q-57 0 -90 -46t-33 -110v-776h-198z" />
<glyph unicode="i" horiz-adv-x="415" d="M80 1356q0 53 38 90t89 37q53 0 91 -37t38 -90t-38 -91t-91 -38t-90 38t-37 91zM109 0v1102h198v-1102h-198z" />
<glyph unicode="j" horiz-adv-x="415" d="M-16 -188q20 -14 41 -15q84 0 84 142v1163h198v-1192q0 -158 -65.5 -229.5t-173.5 -71.5q-41 0 -84 14v189zM80 1356q0 53 38 90t89 37q53 0 91 -37t38 -90t-38 -91t-91 -38t-90 38t-37 91z" />
<glyph unicode="k" horiz-adv-x="720" d="M109 0v1507h198v-858h4l172 453h199l-193 -465l195 -637h-199l-174 569h-4v-569h-198z" />
<glyph unicode="l" horiz-adv-x="454" d="M109 260v1247h198v-1204q0 -133 129 -133h21v-188h-74q-274 -1 -274 278z" />
<glyph unicode="m" horiz-adv-x="1288" d="M109 0v1102h188v-166h4q76 184 219 184q76 0 122 -46t75 -136h4q66 182 237 182q102 0 162 -66.5t60 -172.5v-881h-199v772q0 160 -107 160q-66 0 -98.5 -54.5t-32.5 -142.5v-735h-198v772q0 160 -107 160q-66 0 -98.5 -54.5t-32.5 -142.5v-735h-198z" />
<glyph unicode="n" horiz-adv-x="833" d="M109 0v1102h188v-150h4q68 168 219 168q84 0 144.5 -69.5t60.5 -173.5v-877h-199v797q0 63 -26.5 99t-69.5 36q-57 0 -90 -46t-33 -110v-776h-198z" />
<glyph unicode="o" d="M74 551q0 569 344 569t344 -569t-344 -569t-344 569zM283 604q0 -455 135 -454.5t135 454.5q0 348 -135 348t-135 -348z" />
<glyph unicode="p" d="M109 -391v1493h178v-180h4q37 102 87 150t134 48q250 0 250 -567q0 -270 -64.5 -420.5t-191.5 -150.5q-147 0 -205 198l-4 2v-573h-188zM297 551q0 -391 129 -391q127 0 127 391t-127 391q-129 0 -129 -391z" />
<glyph unicode="q" d="M74 553q0 567 250 567q84 0 134 -48t87 -150h4v180h178v-1493h-188v573l-4 -2q-57 -199 -205 -198q-127 0 -191.5 150.5t-64.5 420.5zM283 551q0 -391 127 -391q129 0 129 391t-129 391q-127 0 -127 -391z" />
<glyph unicode="r" horiz-adv-x="606" d="M109 0v1102h188v-201h4q18 86 76.5 149.5t161.5 69.5h2v-229q-27 10 -60 10q-70 0 -122 -59.5t-52 -198.5v-643h-198z" />
<glyph unicode="s" horiz-adv-x="720" d="M51 195l172 108q2 -61 39 -107t96 -46q51 0 82 33.5t31 76.5q0 88 -123 184l-104 82q-100 80 -140.5 147.5t-40.5 155.5q0 133 83 212t210 79q217 0 301 -215l-170 -102q-4 63 -37.5 106t-95.5 43q-47 0 -74.5 -27.5t-27.5 -72.5q0 -37 24.5 -73t98.5 -91l125 -96 q170 -133 170 -309q0 -127 -85 -214t-231 -87q-217 0 -303 213z" />
<glyph unicode="t" horiz-adv-x="493" d="M41 924v178h106v274h199v-274h107v-178h-107v-650q0 -86 82 -86h25v-178q-55 -10 -95 -10q-211 0 -211 199v725h-106z" />
<glyph unicode="u" horiz-adv-x="833" d="M109 225v877h198v-797q0 -63 26.5 -99t69.5 -36q57 0 90 46t33 110v776h199v-1102h-188v150h-5q-68 -168 -219 -168q-84 0 -144 69.5t-60 173.5z" />
<glyph unicode="v" horiz-adv-x="720" d="M41 1102h209l117 -721h4l110 721h199l-225 -1102h-189z" />
<glyph unicode="w" horiz-adv-x="1062" d="M41 1102h199l96 -721h4l92 721h199l100 -721h4l88 721h199l-193 -1102h-188l-109 836h-4l-106 -836h-189z" />
<glyph unicode="x" horiz-adv-x="720" d="M47 0l219 575l-215 527h209l105 -354h4l100 354h188l-202 -524l219 -578h-199l-119 401h-4l-106 -401h-199z" />
<glyph unicode="y" horiz-adv-x="720" d="M41 1102h199l133 -723h4l104 723h199l-307 -1493h-199l98 442z" />
<glyph unicode="z" horiz-adv-x="720" d="M53 924v178h611v-25l-347 -889h351v-188h-611v25l351 899h-355z" />
<glyph unicode="{" horiz-adv-x="606" d="M82 553v139q51 0 93 69.5t42 174.5v346q0 131 74 205t182 74h92v-129h-45q-104 0 -104 -156v-330q2 -156 -70 -233.5t-147 -87.5v-4q76 -10 147.5 -88t69.5 -234v-330q0 -80 19.5 -117.5t84.5 -37.5h45v-129h-92q-119 0 -187.5 71.5t-68.5 206.5v346q0 104 -42 174 t-93 70z" />
<glyph unicode="|" horiz-adv-x="454" d="M152 -512v2048h151v-2048h-151z" />
<glyph unicode="}" horiz-adv-x="606" d="M41 -186h45q104 0 104 155v330q-2 156 70 233.5t148 88.5v4q-76 10 -148 88t-70 233v330q0 80 -19 118t-85 38h-45v129h92q119 0 187.5 -72t68.5 -207v-346q0 -104 42 -174t93 -70v-139q-51 0 -93 -69.5t-42 -174.5v-346q0 -131 -73.5 -204.5t-182.5 -73.5h-92v129z" />
<glyph unicode="~" horiz-adv-x="1228" d="M141 492q92 172 256 172q102 0 226 -62q156 -78 211 -78q82 0 180 152l73 -131q-113 -172 -256 -172q-96 0 -217 67q-131 72 -221 72q-113 0 -178 -152z" />
<glyph unicode="&#xa1;" horiz-adv-x="491" d="M123 1024q0 51 36 87t87 36t87 -36t36 -87t-36 -87t-87 -36t-87 36t-36 87zM131 -373l39 1118h152l38 -1118h-229z" />
<glyph unicode="&#xa2;" d="M129 532q0 276 62.5 419t199.5 169v144h107v-144q109 -18 163 -104t58 -195l-189 -41q-2 84 -22.5 123t-67.5 39q-37 0 -59.5 -25.5t-37.5 -114.5t-15 -253q0 -389 114 -389q49 0 74 43t35 145l178 -61q-37 -270 -231 -305v-158h-107v158q-133 25 -197.5 158.5 t-64.5 391.5z" />
<glyph unicode="&#xa3;" d="M8 0q4 129 43 190.5t162 137.5q113 68 113 194q0 76 -39 166h-236v107h187q-109 166 -109 335q0 156 103.5 245t261.5 89q162 0 247.5 -101t85.5 -269v-45v-5h-209q0 242 -147 242q-63 0 -98 -44t-35 -107q0 -123 129 -340h283v-107h-236q20 -57 21 -119 q0 -92 -47.5 -157.5t-151.5 -124.5l-2 -8q72 0 168 -57.5t145 -57.5q88 0 180 94v-215q-115 -68 -211 -68q-78 0 -141 38t-112.5 76t-94.5 38q-92 0 -92 -127h-168z" />
<glyph unicode="&#xa4;" d="M12 389l86 86q-86 104 -86 244q0 135 84 246l-84 84l76 75l82 -84q111 84 248 84q131 0 246 -84l84 84l75 -75l-84 -84q84 -111 84 -246q0 -139 -86 -244l86 -86l-75 -76l-84 86q-106 -86 -245.5 -86t-246.5 86l-84 -86zM164 718.5q0 -104.5 74.5 -179t179 -74.5 t179.5 74.5t75 179t-75 179.5t-179.5 75t-179 -75t-74.5 -179.5z" />
<glyph unicode="&#xa5;" d="M41 1440h209l174 -629h4l168 629h199l-242 -690h215v-107h-252v-156h252v-106h-252v-381h-188v381h-262v106h262v156h-262v107h223z" />
<glyph unicode="&#xa6;" horiz-adv-x="454" d="M152 -358v716h151v-716h-151zM152 666v716h151v-716h-151z" />
<glyph unicode="&#xa7;" horiz-adv-x="948" d="M70 731q0 113 67.5 188.5t181.5 84.5l-4 4q-121 80 -120 247q0 119 86 201t217 82q88 0 154.5 -27.5t129.5 -111.5l-143 -137q-55 98 -137 98q-47 0 -78 -30t-31 -75q0 -57 39 -105t162 -136q156 -111 220.5 -195t64.5 -188q0 -109 -63.5 -189t-168.5 -98 q135 -86 135 -258q0 -125 -92 -206t-231 -81q-168 0 -293 146l137 149q66 -117 164 -117q47 0 82 32t35 79q0 51 -38 94t-151 123q-190 131 -257.5 221t-67.5 205zM268 748q0 -66 82 -150q106 -111 195 -111q16 0 42.5 8.5t54.5 39t28 77.5q0 88 -115 181q-90 72 -168 71 q-47 0 -83 -35.5t-36 -80.5z" />
<glyph unicode="&#xa8;" horiz-adv-x="417" d="M-86 1372q0 51 36 87t87 36t87 -36t36 -87t-36 -87t-87 -36t-87 36t-36 87zM258 1372q0 51 36 87t87 36t87 -36t36 -87t-36 -87t-87 -36t-87 36t-36 87z" />
<glyph unicode="&#xa9;" horiz-adv-x="1638" d="M35 753.5q0 325.5 229.5 555t555 229.5t555 -229.5t229.5 -555t-229.5 -555t-555 -229.5t-555 229.5t-229.5 555zM186 754q0 -262 185.5 -447.5t447.5 -185.5t447.5 185.5t185.5 447.5t-185.5 447t-447.5 185t-447.5 -185t-185.5 -447zM385 756q0 209 124 344t333 135 q152 0 260 -86t129 -240h-139q-18 86 -86 141.5t-166 55.5q-143 0 -223 -99.5t-80 -250.5q0 -143 85 -249t222 -106q98 0 165.5 58.5t82.5 148.5h139q-29 -156 -133.5 -246t-249.5 -90q-205 0 -334 138.5t-129 345.5z" />
<glyph unicode="&#xaa;" horiz-adv-x="518" d="M31 973q0 131 57 183t191 52h69v60q0 78 -92 78q-86 0 -94 -84l-131 30q14 98 69.5 135t159.5 37q117 0 172 -41t55 -131v-499h-139v96l-4 2q-27 -59 -64.5 -85t-105.5 -26q-23 0 -44 7.5t-46 25.5t-39 59.5t-14 100.5zM182 987q0 -88 66 -88q37 0 68.5 34t31.5 97v72 h-33q-82 0 -107.5 -31t-25.5 -84z" />
<glyph unicode="&#xab;" horiz-adv-x="833" d="M53 573l189 318h198l-198 -318l198 -305h-198zM393 573l189 318h198l-198 -318l198 -305h-198z" />
<glyph unicode="&#xac;" horiz-adv-x="1228" d="M96 651v152h1037v-582h-152v430h-885z" />
<glyph unicode="&#xad;" horiz-adv-x="606" d="M104 492v178h398v-178h-398z" />
<glyph unicode="&#xae;" horiz-adv-x="1638" d="M35 753.5q0 325.5 229.5 555t555 229.5t555 -229.5t229.5 -555t-229.5 -555t-555 -229.5t-555 229.5t-229.5 555zM186 754q0 -262 185.5 -447.5t447.5 -185.5t447.5 185.5t185.5 447.5t-185.5 447t-447.5 185t-447.5 -185t-185.5 -447zM516 301v907h346q317 0 318 -258 q0 -217 -234 -250l256 -399h-164l-243 395h-140v-395h-139zM655 815h162q53 0 86 4t68 16.5t52 43t17 79.5q0 131 -198 132h-187v-275z" />
<glyph unicode="&#xaf;" horiz-adv-x="417" d="M-68 1262v139h553v-139h-553z" />
<glyph unicode="&#xb0;" horiz-adv-x="819" d="M117 1171.5q0 120.5 86 206.5t206.5 86t206.5 -86t86 -206.5t-86 -206.5t-206.5 -86t-206.5 86t-86 206.5zM236 1171.5q0 -71.5 51 -123t122.5 -51.5t123 51.5t51.5 123t-51.5 123t-123 51.5t-122.5 -51.5t-51 -123z" />
<glyph unicode="&#xb1;" horiz-adv-x="1228" d="M96 0v152h1037v-152h-1037zM96 555v152h443v329h151v-329h443v-152h-443v-330h-151v330h-443z" />
<glyph unicode="&#xb2;" horiz-adv-x="542" d="M23 1182q0 133 57 207.5t196 74.5q121 0 182.5 -61.5t61.5 -147.5q0 -119 -174 -405l-82 -135h234v-129h-471l213 385q113 203 112 272q0 39 -20.5 65.5t-50.5 26.5q-45 0 -65.5 -37.5t-25.5 -115.5h-167z" />
<glyph unicode="&#xb3;" horiz-adv-x="542" d="M33 838h151q0 -139 84 -140q90 0 90 166q0 74 -26.5 120t-79.5 46q-43 0 -76 -41l-94 66l186 280h-213v129h449v-16l-213 -315h4q10 4 41 4q174 0 174 -285q0 -129 -65.5 -206t-182.5 -77q-229 1 -229 269z" />
<glyph unicode="&#xb4;" horiz-adv-x="417" d="M88 1229l150 278h235l-233 -278h-152z" />
<glyph unicode="&#xb5;" horiz-adv-x="833" d="M109 -391v1493h198v-797q0 -63 26.5 -99t69.5 -36q57 0 90 46t33 110v776h199v-1102h-188v150h-5q-66 -168 -218 -169q-4 0 -7 1v-373h-198z" />
<glyph unicode="&#xb6;" horiz-adv-x="948" d="M29 1141q0 186 94 276t264 90h387v-1677h-151v1548h-142v-1548h-151v963q-121 0 -211 95t-90 253z" />
<glyph unicode="&#xb7;" horiz-adv-x="491" d="M100 653.5q0 59.5 43 102.5t102.5 43t102.5 -43t43 -102.5t-43 -102.5t-102.5 -43t-102.5 43t-43 102.5z" />
<glyph unicode="&#xb8;" horiz-adv-x="417" d="M31 -319q78 121 88 266h178q-6 -63 -39 -139t-76 -127h-151z" />
<glyph unicode="&#xb9;" horiz-adv-x="499" d="M68 1188v133q127 57 225 143h49v-878h-152v671q-42 -44 -122 -69z" />
<glyph unicode="&#xba;" horiz-adv-x="544" d="M31 1120q0 344 241.5 344t241.5 -344q0 -340 -241.5 -340t-241.5 340zM199 1133q0 -125 15 -179.5t58 -54.5t58.5 54.5t15.5 179.5q0 74 -3 112.5t-20.5 69.5t-50.5 31q-47 0 -60 -50t-13 -163z" />
<glyph unicode="&#xbb;" horiz-adv-x="833" d="M53 268l199 318l-199 305h199l188 -305l-188 -318h-199zM393 268l199 318l-199 305h199l188 -305l-188 -318h-199z" />
<glyph unicode="&#xbc;" horiz-adv-x="1249" d="M68 1188v133q127 57 225 143h49v-878h-152v671q-42 -44 -122 -69zM84 -41l883 1522h131l-883 -1522h-131zM688 141v109l279 612h149v-592h101v-129h-101v-141h-139v141h-289zM813 270h164v373h-4z" />
<glyph unicode="&#xbd;" horiz-adv-x="1249" d="M68 1188v133q127 57 225 143h49v-878h-152v671q-42 -44 -122 -69zM84 -41l883 1522h131l-883 -1522h-131zM719 596q0 133 57.5 208t196.5 75q121 0 182.5 -61.5t61.5 -147.5q0 -119 -175 -406l-81 -135h233v-129h-471l213 385q113 203 113 272q0 39 -20.5 66t-51.5 27 q-45 0 -65.5 -38t-24.5 -116h-168z" />
<glyph unicode="&#xbe;" horiz-adv-x="1249" d="M33 838h151q0 -139 84 -140q90 0 90 166q0 74 -26.5 120t-79.5 46q-43 0 -76 -41l-94 66l186 280h-213v129h449v-16l-213 -315h4q10 4 41 4q174 0 174 -285q0 -129 -65.5 -206t-182.5 -77q-229 1 -229 269zM147 -41l883 1522h131l-882 -1522h-132zM688 141v109l279 612 h149v-592h101v-129h-101v-141h-139v141h-289zM813 270h164v373h-4z" />
<glyph unicode="&#xbf;" horiz-adv-x="720" d="M41 -53q0 94 20.5 158.5t75.5 148.5l90 135q49 72 63.5 144.5t18.5 211.5h178q-6 -184 -21 -257.5t-58 -143.5l-86 -139q-45 -72 -58.5 -123t-13.5 -139t24.5 -128t81.5 -40q37 0 60.5 19.5t35 58t15.5 78.5t4 102h209v-33q0 -184 -83 -293.5t-251 -109.5q-133 0 -219 87 t-86 263zM274 1024q0 51 36 87t87.5 36t87 -36t35.5 -87t-35.5 -87t-87 -36t-87.5 36t-36 87z" />
<glyph unicode="&#xc0;" horiz-adv-x="948" d="M41 0l317 1507h209l340 -1507h-219l-59 311h-330l-59 -311h-199zM199 1862h235l150 -279h-152zM332 479h266l-131 688h-4z" />
<glyph unicode="&#xc1;" horiz-adv-x="948" d="M41 0l317 1507h209l340 -1507h-219l-59 311h-330l-59 -311h-199zM332 479h266l-131 688h-4zM342 1583l150 279h235l-233 -279h-152z" />
<glyph unicode="&#xc2;" horiz-adv-x="948" d="M41 0l317 1507h209l340 -1507h-219l-59 311h-330l-59 -311h-199zM203 1583l155 279h209l156 -279h-168l-100 160l-101 -160h-151zM332 479h266l-131 688h-4z" />
<glyph unicode="&#xc3;" horiz-adv-x="948" d="M41 0l317 1507h209l340 -1507h-219l-59 311h-330l-59 -311h-199zM186 1604q8 92 37 141q41 66 125 65q43 0 129 -30q72 -25 96 -25q51 0 70 68h96q0 -88 -49 -153.5t-127 -65.5q-37 0 -119 38q-61 29 -94 29q-53 0 -67 -67h-97zM332 479h266l-131 688h-4z" />
<glyph unicode="&#xc4;" horiz-adv-x="948" d="M41 0l317 1507h209l340 -1507h-219l-59 311h-330l-59 -311h-199zM168 1726.5q0 51.5 36 87t87 35.5t87 -35.5t36 -87t-36 -87t-87 -35.5t-87 35.5t-36 87zM332 479h266l-131 688h-4zM512 1726.5q0 51.5 36 87t87 35.5t87 -35.5t36 -87t-36 -87t-87 -35.5t-87 35.5t-36 87 z" />
<glyph unicode="&#xc5;" horiz-adv-x="948" d="M41 0l317 1507h209l340 -1507h-219l-59 311h-330l-59 -311h-199zM283 1732.5q0 75.5 52 128t128 52.5t128 -52.5t52 -128t-52 -128t-128 -52.5t-128 52.5t-52 128zM332 479h266l-131 688h-4zM369 1733q0 -39 27.5 -67t66.5 -28t66.5 28t27.5 67t-27.5 66.5t-66.5 27.5 t-66.5 -27.5t-27.5 -66.5z" />
<glyph unicode="&#xc6;" horiz-adv-x="1290" d="M41 0l465 1507h711v-178h-375v-440h375v-178h-375v-523h375v-188h-584v311h-293l-90 -311h-209zM387 479h246v889h-4z" />
<glyph unicode="&#xc7;" horiz-adv-x="948" d="M76 764q0 774 426 774q276 0 360 -344l-207 -70q-35 225 -155 226q-205 0 -205 -578q0 -287 43 -450.5t156 -163.5q78 0 124 84t62 209l201 -72q-27 -184 -122 -297t-270 -113q-213 0 -313 185.5t-100 609.5zM317 -319q78 121 89 266h178q-6 -63 -39 -139t-76 -127h-152z " />
<glyph unicode="&#xc8;" horiz-adv-x="720" d="M109 1862h235l150 -279h-152zM115 0v1507h549v-178h-340v-440h340v-178h-340v-533h340v-178h-549z" />
<glyph unicode="&#xc9;" horiz-adv-x="720" d="M115 0v1507h549v-178h-340v-440h340v-178h-340v-533h340v-178h-549zM252 1583l149 279h236l-234 -279h-151z" />
<glyph unicode="&#xca;" horiz-adv-x="720" d="M113 1583l155 279h209l156 -279h-168l-100 160l-101 -160h-151zM115 0v1507h549v-178h-340v-440h340v-178h-340v-533h340v-178h-549z" />
<glyph unicode="&#xcb;" horiz-adv-x="720" d="M78 1726.5q0 51.5 36 87t87 35.5t87 -35.5t36 -87t-36 -87t-87 -35.5t-87 35.5t-36 87zM115 0v1507h549v-178h-340v-440h340v-178h-340v-533h340v-178h-549zM422 1726.5q0 51.5 36 87t87 35.5t87 -35.5t36 -87t-36 -87t-87 -35.5t-87 35.5t-36 87z" />
<glyph unicode="&#xcc;" horiz-adv-x="491" d="M-31 1862h236l149 -279h-151zM141 0v1507h209v-1507h-209z" />
<glyph unicode="&#xcd;" horiz-adv-x="491" d="M113 1583l149 279h236l-234 -279h-151zM141 0v1507h209v-1507h-209z" />
<glyph unicode="&#xce;" horiz-adv-x="491" d="M-27 1583l156 279h209l156 -279h-168l-101 160l-100 -160h-152zM141 0v1507h209v-1507h-209z" />
<glyph unicode="&#xcf;" horiz-adv-x="491" d="M-61 1726.5q0 51.5 35.5 87t87 35.5t87 -35.5t35.5 -87t-35.5 -87t-87 -35.5t-87 35.5t-35.5 87zM141 0v1507h209v-1507h-209zM283 1726.5q0 51.5 35.5 87t87 35.5t87 -35.5t35.5 -87t-35.5 -87t-87 -35.5t-87 35.5t-35.5 87z" />
<glyph unicode="&#xd0;" horiz-adv-x="948" d="M4 721v168h113v618h243q115 0 205 -43t145.5 -113.5t91.5 -171t50 -207t14 -231.5q0 -133 -22.5 -253.5t-74.5 -235.5t-152.5 -183.5t-239.5 -68.5h-260v721h-113zM326 178q322 0 321 578q0 281 -82 427t-239 146v-440h170v-168h-170v-543z" />
<glyph unicode="&#xd1;" horiz-adv-x="948" d="M115 0v1507h209l307 -954h4v954h199v-1507h-209l-308 954h-4v-954h-198zM199 1604q8 92 37 141q41 66 124 65q43 0 129 -30q72 -25 97 -25q51 0 69 68h97q0 -88 -49.5 -153.5t-127.5 -65.5q-37 0 -118 38q-61 29 -95 29q-53 0 -67 -67h-96z" />
<glyph unicode="&#xd2;" horiz-adv-x="948" d="M76 754q0 170 17.5 301t59.5 245.5t123.5 176t198.5 61.5q88 0 154.5 -29.5t108.5 -88t70 -127t41 -165t18 -180.5t5 -194q0 -170 -17 -301t-59 -246t-123 -176.5t-198 -61.5q-88 0 -155.5 30t-109.5 88t-69.5 127t-41 165t-18.5 180t-5 195zM211 1862h235l150 -279h-152 zM295 721q0 -264 38 -413.5t142 -149.5q102 0 140 161.5t38 481.5q0 217 -24.5 343t-61.5 166t-92 40q-180 0 -180 -629z" />
<glyph unicode="&#xd3;" horiz-adv-x="948" d="M76 754q0 170 17.5 301t59.5 245.5t123.5 176t198.5 61.5q88 0 154.5 -29.5t108.5 -88t70 -127t41 -165t18 -180.5t5 -194q0 -170 -17 -301t-59 -246t-123 -176.5t-198 -61.5q-88 0 -155.5 30t-109.5 88t-69.5 127t-41 165t-18.5 180t-5 195zM295 721q0 -264 38 -413.5 t142 -149.5q102 0 140 161.5t38 481.5q0 217 -24.5 343t-61.5 166t-92 40q-180 0 -180 -629zM354 1583l150 279h235l-233 -279h-152z" />
<glyph unicode="&#xd4;" horiz-adv-x="948" d="M76 754q0 170 17.5 301t59.5 245.5t123.5 176t198.5 61.5q88 0 154.5 -29.5t108.5 -88t70 -127t41 -165t18 -180.5t5 -194q0 -170 -17 -301t-59 -246t-123 -176.5t-198 -61.5q-88 0 -155.5 30t-109.5 88t-69.5 127t-41 165t-18.5 180t-5 195zM215 1583l156 279h209 l155 -279h-168l-100 160l-100 -160h-152zM295 721q0 -264 38 -413.5t142 -149.5q102 0 140 161.5t38 481.5q0 217 -24.5 343t-61.5 166t-92 40q-180 0 -180 -629z" />
<glyph unicode="&#xd5;" horiz-adv-x="948" d="M76 754q0 170 17.5 301t59.5 245.5t123.5 176t198.5 61.5q88 0 154.5 -29.5t108.5 -88t70 -127t41 -165t18 -180.5t5 -194q0 -170 -17 -301t-59 -246t-123 -176.5t-198 -61.5q-88 0 -155.5 30t-109.5 88t-69.5 127t-41 165t-18.5 180t-5 195zM199 1604q8 92 37 141 q41 66 124 65q43 0 129 -30q72 -25 97 -25q51 0 69 68h97q0 -88 -49.5 -153.5t-127.5 -65.5q-37 0 -118 38q-61 29 -95 29q-53 0 -67 -67h-96zM295 721q0 -264 38 -413.5t142 -149.5q102 0 140 161.5t38 481.5q0 217 -24.5 343t-61.5 166t-92 40q-180 0 -180 -629z" />
<glyph unicode="&#xd6;" horiz-adv-x="948" d="M76 754q0 170 17.5 301t59.5 245.5t123.5 176t198.5 61.5q88 0 154.5 -29.5t108.5 -88t70 -127t41 -165t18 -180.5t5 -194q0 -170 -17 -301t-59 -246t-123 -176.5t-198 -61.5q-88 0 -155.5 30t-109.5 88t-69.5 127t-41 165t-18.5 180t-5 195zM180 1726.5q0 51.5 36 87 t87 35.5t87 -35.5t36 -87t-36 -87t-87 -35.5t-87 35.5t-36 87zM295 721q0 -264 38 -413.5t142 -149.5q102 0 140 161.5t38 481.5q0 217 -24.5 343t-61.5 166t-92 40q-180 0 -180 -629zM524 1726.5q0 51.5 36 87t87 35.5t87 -35.5t36 -87t-36 -87t-87 -35.5t-87 35.5t-36 87z " />
<glyph unicode="&#xd7;" horiz-adv-x="1228" d="M145 154l365 364l-365 365l105 104l364 -364l365 364l104 -104l-364 -365l364 -364l-104 -105l-365 365l-364 -365z" />
<glyph unicode="&#xd8;" horiz-adv-x="948" d="M49 -14l101 207q-74 172 -74 561q0 170 17.5 301t59.5 245.5t123.5 176t198.5 61.5q168 0 264 -119l70 146l90 -43l-100 -207q74 -174 73 -561q0 -170 -17 -301t-59 -246t-123 -176.5t-198 -61.5q-172 0 -264 121l-72 -147zM295 721q0 -82 4 -213h4l320 670 q-41 172 -148 172q-180 0 -180 -629zM328 332q39 -174 147 -174q102 0 140 161.5t38 481.5q0 115 -6 194h-4z" />
<glyph unicode="&#xd9;" horiz-adv-x="946" d="M115 373v1134h209v-1132q0 -217 151 -217q147 0 148 217v1132h208v-1134q0 -403 -356 -404q-170 0 -265 92.5t-95 311.5zM197 1862h235l150 -279h-152z" />
<glyph unicode="&#xda;" horiz-adv-x="946" d="M115 373v1134h209v-1132q0 -217 151 -217q147 0 148 217v1132h208v-1134q0 -403 -356 -404q-170 0 -265 92.5t-95 311.5zM340 1583l149 279h236l-233 -279h-152z" />
<glyph unicode="&#xdb;" horiz-adv-x="946" d="M115 373v1134h209v-1132q0 -217 151 -217q147 0 148 217v1132h208v-1134q0 -403 -356 -404q-170 0 -265 92.5t-95 311.5zM201 1583l155 279h209l156 -279h-168l-100 160l-101 -160h-151z" />
<glyph unicode="&#xdc;" horiz-adv-x="946" d="M115 373v1134h209v-1132q0 -217 151 -217q147 0 148 217v1132h208v-1134q0 -403 -356 -404q-170 0 -265 92.5t-95 311.5zM166 1726.5q0 51.5 36 87t87 35.5t87 -35.5t36 -87t-36 -87t-87 -35.5t-87 35.5t-36 87zM510 1726.5q0 51.5 36 87t87 35.5t87 -35.5t36 -87 t-36 -87t-87 -35.5t-87 35.5t-36 87z" />
<glyph unicode="&#xdd;" horiz-adv-x="833" d="M41 1507h219l164 -628h4l156 628h209l-267 -899v-608h-209v608zM297 1583l149 279h236l-233 -279h-152z" />
<glyph unicode="&#xde;" horiz-adv-x="833" d="M115 0v1507h209v-243q453 0 452 -467q0 -217 -106.5 -344t-311.5 -127h-34v-326h-209zM324 504q233 0 233 297q0 285 -233 284v-581z" />
<glyph unicode="&#xdf;" horiz-adv-x="833" d="M109 0v1173q0 154 71.5 253.5t218.5 99.5q160 0 239 -100.5t79 -270.5q0 -131 -38 -206t-132 -99v-4q70 -12 117 -48t68.5 -95.5t29.5 -120t8 -144.5q0 -76 -15.5 -150.5t-47 -146t-92 -115.5t-142.5 -44q-23 0 -51 8l-33 188q14 -8 39 -8q70 0 101.5 81t31.5 185 q0 154 -38 234t-144 82v168q139 0 139 200q0 137 -27.5 182.5t-84.5 45.5q-98 0 -99 -144v-1204h-198z" />
<glyph unicode="&#xe0;" horiz-adv-x="796" d="M55 293q0 215 89 302t296 87h74v141q0 129 -125 129q-59 0 -89 -32.5t-38 -106.5l-176 49q39 258 313 258q303 0 303 -289v-831h-188v162h-4q-80 -180 -229 -180q-35 0 -69 12t-72 42t-61.5 96.5t-23.5 160.5zM135 1507h236l149 -278h-151zM254 317q0 -82 22.5 -124.5 t83.5 -42.5q55 0 104.5 61t49.5 174v145h-51q-127 0 -168 -56.5t-41 -156.5z" />
<glyph unicode="&#xe1;" horiz-adv-x="796" d="M55 293q0 215 89 302t296 87h74v141q0 129 -125 129q-59 0 -89 -32.5t-38 -106.5l-176 49q39 258 313 258q303 0 303 -289v-831h-188v162h-4q-80 -180 -229 -180q-35 0 -69 12t-72 42t-61.5 96.5t-23.5 160.5zM254 317q0 -82 22.5 -124.5t83.5 -42.5q55 0 104.5 61 t49.5 174v145h-51q-127 0 -168 -56.5t-41 -156.5zM279 1229l149 278h236l-234 -278h-151z" />
<glyph unicode="&#xe2;" horiz-adv-x="796" d="M55 293q0 215 89 302t296 87h74v141q0 129 -125 129q-59 0 -89 -32.5t-38 -106.5l-176 49q39 258 313 258q303 0 303 -289v-831h-188v162h-4q-80 -180 -229 -180q-35 0 -69 12t-72 42t-61.5 96.5t-23.5 160.5zM139 1229l156 278h209l155 -278h-167l-101 160l-100 -160 h-152zM254 317q0 -82 22.5 -124.5t83.5 -42.5q55 0 104.5 61t49.5 174v145h-51q-127 0 -168 -56.5t-41 -156.5z" />
<glyph unicode="&#xe3;" horiz-adv-x="796" d="M55 293q0 215 89 302t296 87h74v141q0 129 -125 129q-59 0 -89 -32.5t-38 -106.5l-176 49q39 258 313 258q303 0 303 -289v-831h-188v162h-4q-80 -180 -229 -180q-35 0 -69 12t-72 42t-61.5 96.5t-23.5 160.5zM123 1249q8 92 37 142q41 66 125 65q43 0 129 -31 q72 -25 96 -24q51 0 70 67h96q0 -88 -49 -153.5t-127 -65.5q-37 0 -119 39q-61 29 -94 29q-53 0 -68 -68h-96zM254 317q0 -82 22.5 -124.5t83.5 -42.5q55 0 104.5 61t49.5 174v145h-51q-127 0 -168 -56.5t-41 -156.5z" />
<glyph unicode="&#xe4;" horiz-adv-x="796" d="M55 293q0 215 89 302t296 87h74v141q0 129 -125 129q-59 0 -89 -32.5t-38 -106.5l-176 49q39 258 313 258q303 0 303 -289v-831h-188v162h-4q-80 -180 -229 -180q-35 0 -69 12t-72 42t-61.5 96.5t-23.5 160.5zM104 1372q0 51 36 87t87.5 36t87 -36t35.5 -87t-35.5 -87 t-87 -36t-87.5 36t-36 87zM254 317q0 -82 22.5 -124.5t83.5 -42.5q55 0 104.5 61t49.5 174v145h-51q-127 0 -168 -56.5t-41 -156.5zM449 1372q0 51 35.5 87t87 36t87 -36t35.5 -87t-35.5 -87t-87 -36t-87 36t-35.5 87z" />
<glyph unicode="&#xe5;" horiz-adv-x="796" d="M55 293q0 215 89 302t296 87h74v141q0 129 -125 129q-59 0 -89 -32.5t-38 -106.5l-176 49q39 258 313 258q303 0 303 -289v-831h-188v162h-4q-80 -180 -229 -180q-35 0 -69 12t-72 42t-61.5 96.5t-23.5 160.5zM219 1358q0 76 52.5 128t128 52t128 -52t52.5 -128 t-52.5 -128t-128 -52t-128 52t-52.5 128zM254 317q0 -82 22.5 -124.5t83.5 -42.5q55 0 104.5 61t49.5 174v145h-51q-127 0 -168 -56.5t-41 -156.5zM305 1358q0 -39 27.5 -66.5t66.5 -27.5t67 27.5t28 66.5t-28 66.5t-67 27.5t-66.5 -27.5t-27.5 -66.5z" />
<glyph unicode="&#xe6;" horiz-adv-x="1138" d="M49 293q0 215 89 302t296 87h53v90q0 180 -116 180q-104 0 -121 -139l-172 49q41 258 295 258q80 0 139 -32.5t82 -86.5q82 119 194 119q143 0 222.5 -129t79.5 -360v-101h-424v-163q0 -217 122 -217q51 0 78 43t35 155h178q-35 -367 -284 -366q-174 0 -234 188 q-47 -96 -108.5 -142t-151.5 -46q-133 0 -192.5 91t-59.5 220zM238 319q0 -70 27.5 -119.5t90.5 -49.5q55 0 93 60t38 124v196q-135 0 -192 -46t-57 -165zM666 682h235q-2 61 -6 100t-15.5 83t-36 65.5t-61.5 21.5q-39 0 -62.5 -21.5t-34.5 -65.5t-15 -83t-4 -100z" />
<glyph unicode="&#xe7;" horiz-adv-x="720" d="M74 532q0 307 76.5 447.5t244.5 140.5q131 0 197.5 -89t71.5 -210l-189 -41q-2 84 -22.5 123t-67.5 39q-37 0 -59.5 -25.5t-38 -114.5t-15.5 -253q0 -389 115 -389q49 0 73.5 43t35.5 145l178 -61q-23 -154 -91.5 -229.5t-195.5 -75.5q-160 0 -236.5 132.5t-76.5 417.5z M195 -309q78 121 88 266h178q-6 -63 -39 -139t-76 -127h-151z" />
<glyph unicode="&#xe8;" horiz-adv-x="833" d="M86 580q0 541 340 540q150 0 236 -113.5t86 -318.5v-158h-463q0 -90 5 -145t18.5 -115.5t41.5 -90.5q29 -29 76 -29q61 0 91 58t34 136h178q-2 -152 -81 -257t-226 -105q-176 0 -256 137t-80 461zM154 1507h235l150 -278h-152zM285 682h274q0 113 -32.5 191.5 t-106.5 78.5q-135 0 -135 -270z" />
<glyph unicode="&#xe9;" horiz-adv-x="833" d="M86 580q0 541 340 540q150 0 236 -113.5t86 -318.5v-158h-463q0 -90 5 -145t18.5 -115.5t41.5 -90.5q29 -29 76 -29q61 0 91 58t34 136h178q-2 -152 -81 -257t-226 -105q-176 0 -256 137t-80 461zM285 682h274q0 113 -32.5 191.5t-106.5 78.5q-135 0 -135 -270zM297 1229 l149 278h236l-233 -278h-152z" />
<glyph unicode="&#xea;" horiz-adv-x="833" d="M86 580q0 541 340 540q150 0 236 -113.5t86 -318.5v-158h-463q0 -90 5 -145t18.5 -115.5t41.5 -90.5q29 -29 76 -29q61 0 91 58t34 136h178q-2 -152 -81 -257t-226 -105q-176 0 -256 137t-80 461zM158 1229l155 278h209l156 -278h-168l-100 160l-101 -160h-151zM285 682 h274q0 113 -32.5 191.5t-106.5 78.5q-135 0 -135 -270z" />
<glyph unicode="&#xeb;" horiz-adv-x="833" d="M86 580q0 541 340 540q150 0 236 -113.5t86 -318.5v-158h-463q0 -90 5 -145t18.5 -115.5t41.5 -90.5q29 -29 76 -29q61 0 91 58t34 136h178q-2 -152 -81 -257t-226 -105q-176 0 -256 137t-80 461zM123 1372q0 51 36 87t87 36t87 -36t36 -87t-36 -87t-87 -36t-87 36 t-36 87zM285 682h274q0 113 -32.5 191.5t-106.5 78.5q-135 0 -135 -270zM467 1372q0 51 36 87t87 36t87 -36t36 -87t-36 -87t-87 -36t-87 36t-36 87z" />
<glyph unicode="&#xec;" horiz-adv-x="415" d="M-55 1507h235l150 -278h-152zM109 0v1102h198v-1102h-198z" />
<glyph unicode="&#xed;" horiz-adv-x="415" d="M88 1229l150 278h235l-233 -278h-152zM109 0v1102h198v-1102h-198z" />
<glyph unicode="&#xee;" horiz-adv-x="415" d="M-51 1229l155 278h209l156 -278h-168l-100 160l-101 -160h-151zM109 0v1102h198v-1102h-198z" />
<glyph unicode="&#xef;" horiz-adv-x="415" d="M-86 1372q0 51 36 87t87 36t87 -36t36 -87t-36 -87t-87 -36t-87 36t-36 87zM109 0v1102h198v-1102h-198zM258 1372q0 51 36 87t87 36t87 -36t36 -87t-36 -87t-87 -36t-87 36t-36 87z" />
<glyph unicode="&#xf0;" d="M74 551q0 262 79.5 415.5t233.5 153.5q61 0 113 -51l4 4q-53 121 -146 221l-163 -94l-70 88l149 86q-56 51 -124 90l108 113q92 -47 170 -113l158 88l69 -88l-145 -84q113 -125 182.5 -312t69.5 -413q0 -346 -78 -509.5t-266 -163.5q-344 0 -344 569zM283 604 q0 -455 135 -454.5t135 454.5q0 348 -135 348t-135 -348z" />
<glyph unicode="&#xf1;" horiz-adv-x="833" d="M109 0v1102h188v-150h4q68 168 219 168q84 0 144.5 -69.5t60.5 -173.5v-877h-199v797q0 63 -26.5 99t-69.5 36q-57 0 -90 -46t-33 -110v-776h-198zM141 1249q8 92 37 142q41 66 125 65q43 0 129 -31q72 -25 96 -24q51 0 70 67h96q0 -88 -49 -153.5t-127 -65.5 q-37 0 -119 39q-61 29 -94 29q-53 0 -67 -68h-97z" />
<glyph unicode="&#xf2;" d="M74 551q0 569 344 569t344 -569t-344 -569t-344 569zM154 1507h235l150 -278h-152zM283 604q0 -455 135 -454.5t135 454.5q0 348 -135 348t-135 -348z" />
<glyph unicode="&#xf3;" d="M74 551q0 569 344 569t344 -569t-344 -569t-344 569zM283 604q0 -455 135 -454.5t135 454.5q0 348 -135 348t-135 -348zM297 1229l149 278h236l-233 -278h-152z" />
<glyph unicode="&#xf4;" d="M74 551q0 569 344 569t344 -569t-344 -569t-344 569zM158 1229l155 278h209l156 -278h-168l-100 160l-101 -160h-151zM283 604q0 -455 135 -454.5t135 454.5q0 348 -135 348t-135 -348z" />
<glyph unicode="&#xf5;" d="M74 551q0 569 344 569t344 -569t-344 -569t-344 569zM141 1249q8 92 37 142q41 66 125 65q43 0 129 -31q72 -25 96 -24q51 0 70 67h96q0 -88 -49 -153.5t-127 -65.5q-37 0 -119 39q-61 29 -94 29q-53 0 -67 -68h-97zM283 604q0 -455 135 -454.5t135 454.5q0 348 -135 348 t-135 -348z" />
<glyph unicode="&#xf6;" d="M74 551q0 569 344 569t344 -569t-344 -569t-344 569zM123 1372q0 51 36 87t87 36t87 -36t36 -87t-36 -87t-87 -36t-87 36t-36 87zM283 604q0 -455 135 -454.5t135 454.5q0 348 -135 348t-135 -348zM467 1372q0 51 36 87t87 36t87 -36t36 -87t-36 -87t-87 -36t-87 36 t-36 87z" />
<glyph unicode="&#xf7;" horiz-adv-x="1228" d="M96 442v152h1037v-152h-1037zM475 94.5q0 57.5 41 98t98.5 40.5t98.5 -40.5t41 -98t-41 -98.5t-98.5 -41t-98.5 41t-41 98.5zM475 942q0 57 41 98t98.5 41t98.5 -41t41 -98t-41 -98t-98.5 -41t-98.5 41t-41 98z" />
<glyph unicode="&#xf8;" d="M63 0l84 152q-74 139 -73 399q0 569 344 569q131 0 211 -86l61 113l82 -45l-84 -152q74 -141 74 -399q0 -569 -344 -569q-131 0 -211 86l-62 -113zM283 604q0 -109 6 -190h4l231 430q-29 109 -106 108q-135 0 -135 -348zM317 268q31 -119 101 -118q135 0 135 454 q0 63 -2 90h-4z" />
<glyph unicode="&#xf9;" horiz-adv-x="833" d="M109 225v877h198v-797q0 -63 26.5 -99t69.5 -36q57 0 90 46t33 110v776h199v-1102h-188v150h-5q-68 -168 -219 -168q-84 0 -144 69.5t-60 173.5zM141 1507h236l149 -278h-151z" />
<glyph unicode="&#xfa;" horiz-adv-x="833" d="M109 225v877h198v-797q0 -63 26.5 -99t69.5 -36q57 0 90 46t33 110v776h199v-1102h-188v150h-5q-68 -168 -219 -168q-84 0 -144 69.5t-60 173.5zM285 1229l149 278h236l-234 -278h-151z" />
<glyph unicode="&#xfb;" horiz-adv-x="833" d="M109 225v877h198v-797q0 -63 26.5 -99t69.5 -36q57 0 90 46t33 110v776h199v-1102h-188v150h-5q-68 -168 -219 -168q-84 0 -144 69.5t-60 173.5zM145 1229l156 278h209l156 -278h-168l-101 160l-100 -160h-152z" />
<glyph unicode="&#xfc;" horiz-adv-x="833" d="M109 225v877h198v-797q0 -63 26.5 -99t69.5 -36q57 0 90 46t33 110v776h199v-1102h-188v150h-5q-68 -168 -219 -168q-84 0 -144 69.5t-60 173.5zM111 1372q0 51 35.5 87t87 36t87 -36t35.5 -87t-35.5 -87t-87 -36t-87 36t-35.5 87zM455 1372q0 51 35.5 87t87 36t87 -36 t35.5 -87t-35.5 -87t-87 -36t-87 36t-35.5 87z" />
<glyph unicode="&#xfd;" horiz-adv-x="720" d="M41 1102h199l133 -723h4l104 723h199l-307 -1493h-199l98 442zM240 1229l149 278h236l-234 -278h-151z" />
<glyph unicode="&#xfe;" d="M109 -391v1898h188v-577h4q35 102 84 146t127 44q250 0 250 -567q0 -270 -64.5 -420.5t-191.5 -150.5q-147 0 -205 198l-4 2v-573h-188zM297 551q0 -391 129 -391q127 0 127 391t-127 391q-129 0 -129 -391z" />
<glyph unicode="&#xff;" horiz-adv-x="720" d="M41 1102h199l133 -723h4l104 723h199l-307 -1493h-199l98 442zM66 1372q0 51 35.5 87t87 36t87 -36t35.5 -87t-35.5 -87t-87 -36t-87 36t-35.5 87zM410 1372q0 51 35.5 87t87 36t87 -36t35.5 -87t-35.5 -87t-87 -36t-87 36t-35.5 87z" />
<glyph unicode="&#x152;" horiz-adv-x="1290" d="M76 754q0 170 17.5 301t59.5 245.5t123.5 176t198.5 61.5q55 0 133 -16q68 -14 140 -15h466v-178h-370v-440h370v-178h-370v-533h370v-178h-522q-45 0 -110 -14q-70 -16 -107 -17q-88 0 -155.5 30t-109.5 88t-69.5 127t-41 165t-18.5 180t-5 195zM295 753.5 q0 -323.5 47 -459.5t145 -136q100 0 129 127t29 469t-28.5 469t-129.5 127q-98 0 -145 -136.5t-47 -460z" />
<glyph unicode="&#x153;" horiz-adv-x="1175" d="M61 573q0 244 84 395.5t240 151.5q154 0 213 -162h4q25 76 82 119t129 43q143 0 222 -129t79 -360v-101h-424v-163q0 -217 123 -217q51 0 78 43t35 155h178q-35 -367 -285 -366q-168 0 -219 157q-33 -82 -83 -119.5t-132 -37.5q-86 0 -149.5 49t-95 114.5t-51 157.5 t-24 150.5t-4.5 119.5zM260 571q0 -422 135 -421q68 0 92.5 92t24.5 305q0 51 -1 87t-4 89t-11.5 89t-20.5 71t-33.5 52t-48.5 17q-133 0 -133 -381zM690 682h236q-2 61 -6.5 100t-15.5 83t-35.5 65.5t-61.5 21.5q-39 0 -62.5 -21.5t-35 -65.5t-15.5 -83t-4 -100z" />
<glyph unicode="&#x178;" horiz-adv-x="833" d="M41 1507h219l164 -628h4l156 628h209l-267 -899v-608h-209v608zM123 1726.5q0 51.5 36 87t87 35.5t87 -35.5t36 -87t-36 -87t-87 -35.5t-87 35.5t-36 87zM467 1726.5q0 51.5 36 87t87 35.5t87 -35.5t36 -87t-36 -87t-87 -35.5t-87 35.5t-36 87z" />
<glyph unicode="&#x2c6;" horiz-adv-x="417" d="M-51 1229l155 278h209l156 -278h-168l-100 160l-101 -160h-151z" />
<glyph unicode="&#x2dc;" horiz-adv-x="417" d="M-68 1249q8 92 37 142q41 66 125 65q43 0 129 -31q72 -25 96 -24q51 0 70 67h96q0 -88 -49 -153.5t-127 -65.5q-37 0 -119 39q-61 29 -94 29q-53 0 -67 -68h-97z" />
<glyph unicode="&#x2013;" horiz-adv-x="1024" d="M0 496v168h1024v-168h-1024z" />
<glyph unicode="&#x2014;" horiz-adv-x="2048" d="M0 496v168h2048v-168h-2048z" />
<glyph unicode="&#x2018;" horiz-adv-x="491" d="M86 1090l168 417h152l-121 -417h-199z" />
<glyph unicode="&#x2019;" horiz-adv-x="491" d="M86 1090l121 417h199l-168 -417h-152z" />
<glyph unicode="&#x201a;" horiz-adv-x="491" d="M86 -158l121 418h199l-168 -418h-152z" />
<glyph unicode="&#x201c;" horiz-adv-x="720" d="M35 1090l170 417h151l-123 -417h-198zM365 1090l170 417h151l-123 -417h-198z" />
<glyph unicode="&#x201d;" horiz-adv-x="720" d="M35 1090l123 417h198l-170 -417h-151zM365 1090l122 417h199l-170 -417h-151z" />
<glyph unicode="&#x201e;" horiz-adv-x="720" d="M35 -158l123 418h198l-170 -418h-151zM365 -158l122 418h199l-170 -418h-151z" />
<glyph unicode="&#x2022;" horiz-adv-x="1024" d="M135 753.5q0 155.5 110.5 266t266.5 110.5t266.5 -110.5t110.5 -266t-110.5 -266t-266.5 -110.5t-266.5 110.5t-110.5 266z" />
<glyph unicode="&#x2026;" horiz-adv-x="2048" d="M219 110.5q0 51.5 36 87t87 35.5t87 -35.5t36 -87t-36 -87t-87 -35.5t-87 35.5t-36 87zM901 110.5q0 51.5 36 87t87 35.5t87 -35.5t36 -87t-36 -87t-87 -35.5t-87 35.5t-36 87zM1583 110.5q0 51.5 36 87t87 35.5t87 -35.5t36 -87t-36 -87t-87 -35.5t-87 35.5t-36 87z" />
<glyph unicode="&#x2039;" horiz-adv-x="493" d="M53 573l189 318h198l-198 -318l198 -305h-198z" />
<glyph unicode="&#x203a;" horiz-adv-x="493" d="M53 268l199 318l-199 305h199l188 -305l-188 -318h-199z" />
<glyph unicode="&#x20ac;" d="M37 498l41 153h72q-2 18 -3 72q0 47 3 70h-113l41 153h84q47 516 385 516q150 0 219 -55v-188q-57 61 -184 61q-201 0 -224 -334h353l-43 -153h-320q-2 -20 -2 -70q0 -51 2 -72h281l-41 -153h-230q23 -342 224 -342q119 0 184 61v-192q-55 -47 -219 -48 q-166 0 -262.5 124t-120.5 397h-127z" />
<glyph unicode="&#x2122;" horiz-adv-x="2027" d="M53 1389v118h672v-118h-260v-725h-152v725h-260zM868 664v843h232l241 -620l238 620h231v-843h-151v692h-4l-264 -692h-103l-264 692h-4v-692h-152z" />
<glyph unicode="&#xe000;" horiz-adv-x="1100" d="M0 1100h1100v-1100h-1100v1100z" />
<glyph unicode="&#xfb01;" horiz-adv-x="948" d="M41 924v178h106v164q0 133 43 196.5t168 63.5q57 0 95 -6v-189q-12 6 -37 6q-70 0 -70 -86v-149h107v-178h-107v-924h-199v924h-106zM573 1356q0 53 37 90t90.5 37t91 -37t37.5 -90t-37.5 -91t-91 -38t-90.5 38t-37 91zM602 0v1102h199v-1102h-199z" />
<glyph unicode="&#xfb02;" horiz-adv-x="948" d="M41 924v178h106v164q0 133 43 196.5t168 63.5q57 0 95 -6v-189q-12 6 -37 6q-70 0 -70 -86v-149h107v-178h-107v-924h-199v924h-106zM602 260v1247h199v-1204q0 -133 129 -133h20v-188h-73q-275 -1 -275 278z" />
<glyph unicode="&#xfb03;" horiz-adv-x="1402" d="M41 924v178h106v164q0 133 43 196.5t168 63.5q57 0 95 -6v-189q-12 6 -37 6q-70 0 -70 -86v-149h107v-178h-107v-924h-199v924h-106zM535 924v178h106v164q0 133 43 196.5t168 63.5q57 0 94 -6v-189q-12 6 -37 6q-70 0 -69 -86v-149h106v-178h-106v-924h-199v924h-106z M1067 1356q0 53 38 90t89 37q53 0 91 -37t38 -90t-38 -91t-91 -38t-90 38t-37 91zM1096 0v1102h198v-1102h-198z" />
<glyph unicode="&#xfb04;" horiz-adv-x="1441" d="M41 924v178h106v164q0 133 43 196.5t168 63.5q57 0 95 -6v-189q-12 6 -37 6q-70 0 -70 -86v-149h107v-178h-107v-924h-199v924h-106zM535 924v178h106v164q0 133 43 196.5t168 63.5q57 0 94 -6v-189q-12 6 -37 6q-70 0 -69 -86v-149h106v-178h-106v-924h-199v924h-106z M1096 260v1247h198v-1204q0 -133 129 -133h21v-188h-74q-274 -1 -274 278z" />
</font>
</defs>
</svg>
